<svg viewBox="0 0 15 16" xmlns="http://www.w3.org/2000/svg">
  <title>Tekton logo</title>
  <g transform="translate(-3.000000, -2.000000)" fill="#FFFFFF">
    <path d="M7.17745095,14.7421271 C7.39445095,14.8131271 7.59045095,14.9221271 7.76145095,15.0701271 C7.79545095,15.0981271 7.81945095,15.1541271 7.82145095,15.1981271 C7.84645095,15.8151271 7.90745095,16.4271271 8.07445095,17.0241271 C8.10745095,17.1461271 8.16445095,17.2631271 8.22045095,17.3771271 C8.29245095,17.5231271 8.29545095,17.6731271 8.27545095,17.8281271 C8.26745095,17.8881271 8.22745095,17.8851271 8.18345095,17.8851271 C7.95945095,17.8891271 7.73445095,17.8961271 7.50945095,17.8971271 C7.12145095,17.8981271 6.73345095,17.8931271 6.34445095,17.8951271 C6.22445095,17.8961271 6.14145095,17.8451271 6.08645095,17.7431271 C5.97145095,17.5311271 5.93845095,17.3111271 6.06245095,17.0921271 C6.18345095,16.8771271 6.39445095,16.8111271 6.62145095,16.8181271 C6.80045095,16.8241271 6.96145095,16.9131271 7.09845095,17.0281271 C7.23545095,17.1421271 7.36145095,17.2711271 7.48745095,17.3881271 C7.46045095,17.0981271 7.32645095,16.8501271 7.05045095,16.7021271 C6.87945095,16.6111271 6.77445095,16.4781271 6.69345095,16.3061271 C6.48445095,15.8651271 6.31345095,15.4091271 6.17845095,14.9401271 C6.16145095,14.8771271 6.17745095,14.8481271 6.23045095,14.8181271 C6.53545095,14.6431271 6.85145095,14.6341271 7.17745095,14.7421271 Z M10.7939509,14.6746271 C10.9799509,14.6766271 11.1549509,14.7296271 11.3119509,14.8316271 C11.3349509,14.8466271 11.3559509,14.8956271 11.3489509,14.9216271 C11.2009509,15.4686271 11.0049509,15.9976271 10.7329509,16.4946271 C10.6939509,16.5636271 10.6119509,16.6176271 10.5389509,16.6586271 C10.2629509,16.8126271 10.0899509,17.0366271 10.0459509,17.3526271 C10.0439509,17.3656271 10.0419509,17.3796271 10.0419509,17.3916271 C10.0419509,17.3966271 10.0469509,17.4016271 10.0499509,17.4096271 C10.1329509,17.3196271 10.2129509,17.2276271 10.2989509,17.1416271 C10.4389509,17.0016271 10.6029509,16.8966271 10.7949509,16.8396271 C11.0659509,16.7586271 11.3879509,16.8936271 11.4929509,17.1426271 C11.5929509,17.3796271 11.5459509,17.6016271 11.3989509,17.8056271 C11.3499509,17.8746271 11.2769509,17.8926271 11.1959509,17.8926271 C10.6999509,17.8916271 10.2059509,17.8926271 9.71095095,17.8906271 C9.58895095,17.8906271 9.46695095,17.8846271 9.34595095,17.8866271 C9.28595095,17.8876271 9.25595095,17.8686271 9.25095095,17.8066271 C9.23895095,17.6386271 9.26495095,17.4846271 9.33795095,17.3236271 C9.43595095,17.1066271 9.49995095,16.8716271 9.54995095,16.6386271 C9.65295095,16.1596271 9.69595095,15.6736271 9.71095095,15.1846271 C9.71195095,15.1506271 9.72695095,15.1056271 9.75095095,15.0866271 C10.0529509,14.8356271 10.3909509,14.6696271 10.7939509,14.6746271 Z M4.54505095,14.9340271 C4.79005095,15.0340271 5.01705095,15.1210271 5.23805095,15.2190271 C5.44105095,15.3090271 5.63705095,15.4120271 5.83405095,15.5100271 C5.86105095,15.5240271 5.89305095,15.5450271 5.90305095,15.5720271 C6.01505095,15.8500271 6.12305095,16.1310271 6.23305095,16.4170271 C6.22205095,16.4220271 6.20605095,16.4310271 6.18905095,16.4380271 C5.81305095,16.5810271 5.59705095,16.8530271 5.54705095,17.2520271 C5.54005095,17.3090271 5.51905095,17.3290271 5.46205095,17.3290271 C4.93905095,17.3270271 4.41505095,17.3270271 3.89205095,17.3300271 C3.77305095,17.3300271 3.77405081,17.2410271 3.77405081,17.1690271 C3.77905095,16.8890271 3.89705095,16.6660271 4.14105095,16.5230271 C4.37805095,16.3820271 4.63805095,16.3780271 4.89705095,16.4370271 C5.09205095,16.4820271 5.28205095,16.5470271 5.49205095,16.6090271 C4.90905095,16.2050271 4.51805095,15.7050271 4.54505095,14.9340271 Z M12.9805509,14.9585271 C13.0035509,15.7025271 12.6175509,16.2075271 12.0255509,16.6135271 C12.2445509,16.5505271 12.4355509,16.4865271 12.6295509,16.4395271 C12.8415509,16.3885271 13.0565509,16.3895271 13.2655509,16.4655271 C13.5795509,16.5805271 13.7915509,16.9185271 13.7455509,17.2205271 C13.7335509,17.2965271 13.7035509,17.3275271 13.6205509,17.3265505 C13.0965509,17.3235271 12.5735509,17.3245271 12.0495509,17.3255271 C12.0015509,17.3255271 11.9595509,17.3305271 11.9505509,17.2575271 C11.9005509,16.8515271 11.6735509,16.5855271 11.2885509,16.4525271 C11.2745509,16.4475271 11.2605509,16.4415271 11.2525509,16.4375271 C11.3575509,16.1575271 11.4595509,15.8825271 11.5645509,15.6065271 C11.5725509,15.5855271 11.5945509,15.5635271 11.6155509,15.5545271 C12.0385509,15.3625271 12.4605509,15.1715271 12.8845509,14.9815271 C12.9135509,14.9695271 12.9455509,14.9665271 12.9805509,14.9585271 Z M9.29065095,15.2690271 C9.28465095,15.4130271 9.28865095,15.5700271 9.26465095,15.7240271 C9.20665095,16.1080271 9.13765095,16.4890271 9.07165095,16.8720271 C9.06465095,16.9090271 9.04965095,16.9450271 9.03765095,16.9820271 C8.96465095,17.1970271 8.88465095,17.2430271 8.66465095,17.1940271 C8.64165095,17.1890271 8.61365095,17.1640271 8.60565095,17.1410271 C8.54465095,16.9700271 8.47465095,16.8000271 8.43265095,16.6240271 C8.32665095,16.1800271 8.28065095,15.7270271 8.26965095,15.2690271 L9.29065095,15.2690271 Z M12.0860509,13.5014271 C12.4150509,13.5884271 12.8080509,14.1914271 12.7990509,14.6044271 C12.4630509,14.7464271 12.1310509,14.8884271 11.8110509,15.0244271 C11.9010509,14.5234271 11.9930509,14.0124271 12.0860509,13.5014271 Z M5.44385095,13.5009271 C5.53585095,14.0149271 5.62785095,14.5269271 5.71785095,15.0249271 C5.41185095,14.8999271 5.09485095,14.7709271 4.77985095,14.6389271 C4.75985095,14.6309271 4.73585095,14.5969271 4.73885095,14.5799271 C4.81185095,14.1289271 4.99985095,13.7509271 5.41185095,13.5129271 C5.42485095,13.5049271 5.44085095,13.5019271 5.44385095,13.5009271 Z M6.44635095,10.8016271 C6.59235095,10.8536271 6.74335095,10.8936271 6.88135095,10.9636271 C7.55635095,11.3026271 8.27035095,11.4726271 9.02735095,11.4426271 C9.65835095,11.4186271 10.2553509,11.2576271 10.8203509,10.9746271 C10.9633509,10.9046271 11.1183509,10.8606271 11.2673509,10.8056271 C11.2723509,10.8116271 11.2773509,10.8196271 11.2833509,10.8266271 C11.1193509,11.0426271 10.9323509,11.2376271 10.7033509,11.3816271 C10.4763509,11.5226271 10.2343509,11.6416271 10.0373509,11.7506271 C10.2563509,11.7476271 10.7413509,11.6016271 11.3473509,11.3436271 C11.6693509,11.8056271 11.7483509,13.6076271 11.4793509,14.3566271 C10.9043509,14.1116271 10.3763509,14.2886271 9.85635095,14.5376271 C9.80535095,14.5616271 9.75635095,14.5906271 9.70835095,14.6156271 C9.66335095,14.2876271 9.63335095,13.9686271 9.57135095,13.6536271 C9.50535095,13.3106271 9.41035095,12.9736271 9.32535095,12.6356271 C9.31335095,12.5906271 9.29035095,12.5446271 9.26235095,12.5076271 C9.20735095,12.4336271 9.10235095,12.4136271 9.02835095,12.4576271 C8.95235095,12.5026271 8.92335095,12.5686271 8.93935095,12.6606271 C9.01935095,13.0966271 9.10335095,13.5306271 9.17035095,13.9686271 C9.21735095,14.2676271 9.23835095,14.5726271 9.27135095,14.8876271 C8.93235095,14.9376271 8.61135095,14.9356271 8.27035095,14.8986271 C8.28335095,14.7346271 8.28635095,14.5716271 8.31035095,14.4116271 C8.39335095,13.8476271 8.48335095,13.2826271 8.57035095,12.7186271 C8.57435095,12.6966271 8.57735095,12.6746271 8.57735095,12.6516271 C8.58135095,12.5326271 8.54335095,12.4716271 8.45635095,12.4486271 C8.35835095,12.4246271 8.27335095,12.4596271 8.23635095,12.5696271 C8.16735095,12.7726271 8.09835095,12.9776271 8.05735095,13.1876271 C7.96835095,13.6506271 7.89535095,14.1166271 7.81435095,14.5876271 C7.27935095,14.2066271 6.69335095,14.0726271 6.05035095,14.3946271 C5.83635095,13.3046271 5.77335095,12.2416271 6.22935095,11.1926271 C6.64335095,11.4646271 7.09335095,11.6146271 7.56935095,11.6956271 C7.11535095,11.5016271 6.73535095,11.2156271 6.43435095,10.8256271 C6.43835095,10.8166271 6.44235095,10.8086271 6.44635095,10.8016271 Z M12.8887509,12.3198271 C13.1017509,12.6358271 13.2337509,12.7378271 13.5537509,12.8478271 C13.3597509,13.1658271 13.1627509,13.4828271 12.9627509,13.8078271 C12.8217509,13.5608271 12.6347509,13.3538271 12.3707509,13.1898271 C12.5427509,12.9018271 12.7117509,12.6178271 12.8887509,12.3198271 Z M17.0079509,11.1108271 C17.0899509,11.1548271 17.1789509,11.1808271 17.2389509,11.2388271 C17.5429509,11.5318271 17.7569509,11.8808271 17.8489509,12.2978271 C17.9009509,12.5308271 17.8329509,12.7178271 17.6579509,12.8688271 C17.4679509,13.0328271 17.2479509,13.1178271 16.9919509,13.0758271 C16.8349509,13.0498271 16.7199509,12.9648271 16.6499509,12.8228271 C16.6019509,12.7258271 16.5699509,12.6198271 16.5179509,12.5238271 C16.4389509,12.3788271 16.3479509,12.2388271 16.2639509,12.0958271 C16.2509509,12.0758271 16.2329509,12.0518271 16.2349509,12.0318271 C16.2559509,11.7028271 16.3819509,11.4258271 16.6659509,11.2448271 C16.7619509,11.1828271 16.8819509,11.1588271 17.0079509,11.1108271 Z M13.7539509,11.3718271 C13.8209509,11.6768271 13.9619509,11.9268271 14.2129509,12.1128271 C14.0839509,12.2508271 13.9629509,12.3828271 13.8389509,12.5118271 C13.8259509,12.5258271 13.8029509,12.5378271 13.7829509,12.5388271 C13.5259509,12.5478271 13.2599509,12.3678271 13.1659509,12.1268271 C13.1379509,12.0538271 13.1409509,11.9958271 13.1989509,11.9348271 C13.3569509,11.7748271 13.5089509,11.6098271 13.6629509,11.4478271 C13.6879509,11.4228271 13.7169509,11.4028271 13.7539509,11.3718271 Z M14.9424509,10.6587271 C14.8314509,11.2027271 14.8344509,11.2547271 14.9894509,11.6937271 C14.8384509,11.7607271 14.6864509,11.8267271 14.5354509,11.8907271 C14.5184509,11.8977271 14.4924509,11.8877271 14.4724509,11.8797271 C14.2634509,11.7857271 14.0614509,11.4607271 14.0714509,11.2297271 C14.0744509,11.1487271 14.1034509,11.0867271 14.1774509,11.0387271 C14.4164509,10.8857271 14.6634509,10.7547271 14.9424509,10.6587271 Z M15.6578509,10.5250271 C16.0448509,10.5290271 16.3958509,10.6380271 16.7438509,10.8440271 C16.5128509,10.9240271 16.3358509,11.0550271 16.1948509,11.2320271 C16.0548509,11.4080271 15.9718509,11.6110271 15.9278509,11.8120271 C15.7488509,11.7680271 15.5788509,11.7270271 15.4088509,11.6840271 C15.3908509,11.6790271 15.3678509,11.6670271 15.3578509,11.6520271 C15.1788509,11.3820271 15.1338509,11.0940271 15.2578509,10.7910271 C15.3288509,10.6180271 15.4538509,10.5230271 15.6578509,10.5250271 Z M9.56645095,10.2361271 C9.62545095,10.2491271 9.68345095,10.2701271 9.73745095,10.2971271 C9.87445095,10.3661271 9.89145095,10.4651271 9.76945095,10.5561271 C9.67345095,10.6251271 9.55845095,10.6851271 9.44445095,10.7071271 C9.25345095,10.7461271 9.05545095,10.7491271 8.86045095,10.7671271 C8.66245095,10.7491271 8.46145095,10.7461271 8.26745095,10.7061271 C8.14845095,10.6821271 8.03045095,10.6131271 7.93145095,10.5381271 C7.82745095,10.4581271 7.84245095,10.3541271 7.96745095,10.3081271 C8.11545095,10.2531271 8.27245095,10.2111271 8.42945095,10.1911271 C8.80945095,10.1411271 9.19045095,10.1481271 9.56645095,10.2361271 Z M4.33505095,8.58302708 C4.49205095,8.63402708 4.64905095,8.68702708 4.80805095,8.73502708 C5.47105095,8.93802708 6.14705095,9.08102708 6.83605095,9.15502708 C6.91005095,9.16302708 6.96005095,9.18702708 7.00005095,9.26002708 C7.16605095,9.56402708 7.43305095,9.75302708 7.74405095,9.88502708 C7.78305095,9.90102708 7.82105095,9.91602708 7.85905095,9.93202708 C7.86205095,9.93402708 7.86305095,9.93702708 7.87405095,9.94902708 C7.61105095,10.0760271 7.45405095,10.2640271 7.53805095,10.5950271 C6.96605095,10.4870271 6.43305095,10.3100271 5.93105095,10.0420271 C5.27605095,9.69402708 4.73505095,9.21902708 4.31905095,8.60602708 C4.32405095,8.59802708 4.32905095,8.59102708 4.33505095,8.58302708 Z M13.3819509,8.59322708 C12.5949509,9.71522708 11.5169509,10.3372271 10.1899509,10.5882271 C10.2649509,10.2762271 10.1269509,10.0772271 9.84095095,9.94522708 C9.93995095,9.90122708 10.0229509,9.86622708 10.1039509,9.82622708 C10.3779509,9.69122708 10.6039509,9.50122708 10.7439509,9.22422708 C10.7809509,9.15122708 10.8459509,9.16822708 10.9019509,9.15822708 C11.2799509,9.09422708 11.6639509,9.05122708 12.0379509,8.96622708 C12.4619509,8.86922708 12.8769509,8.73522708 13.2959509,8.61622708 C13.3199509,8.61022708 13.3439509,8.60322708 13.3819509,8.59322708 Z M9.89345095,7.90262708 C9.99845095,7.95062708 10.0974509,8.01262708 10.1914509,8.07862708 C10.5834509,8.35362708 10.5704509,8.81962708 10.3764509,9.11262708 C10.1564509,9.44362708 9.83345095,9.60562708 9.43545095,9.60062708 C9.22545095,9.59862708 9.07445095,9.48362708 8.97345095,9.30262708 C8.93945095,9.24262708 8.90645095,9.18162708 8.86345095,9.10262708 C8.82445095,9.16462708 8.79545095,9.20862708 8.76745095,9.25362708 C8.55745095,9.60762708 8.25745095,9.71262708 7.88345095,9.53962708 C7.72645095,9.46762708 7.57445095,9.36762708 7.44645095,9.25062708 C7.14745095,8.97662708 7.06645095,8.37262708 7.55145095,8.05062708 C7.83645095,7.86062708 8.14945095,7.75762708 8.48245095,7.71162708 C8.96945095,7.64362708 9.44345095,7.69962708 9.89345095,7.90262708 Z M8.53745095,7.95662708 C8.35545095,7.98062708 8.17645095,8.02162708 8.02145095,8.12662708 C7.87045095,8.22962708 7.82245095,8.41462708 7.92745095,8.56462708 C7.99045095,8.65262708 8.08145095,8.73062708 8.17545095,8.78462708 C8.38445095,8.90562708 8.61945095,8.94862708 8.86145095,8.95362708 C8.95645095,8.94262708 9.05345095,8.93862708 9.14745095,8.92062708 C9.36045095,8.87962708 9.56545095,8.81562708 9.72445095,8.65662708 C9.91245095,8.46662708 9.87845095,8.22562708 9.64745095,8.09562708 C9.61145095,8.07562708 9.57345095,8.05762708 9.53445095,8.04262708 C9.21045095,7.92562708 8.87545095,7.91162708 8.53745095,7.95662708 Z M8.7350673,2.32732708 C8.73305095,2.90532708 8.73405095,3.48432708 8.73405095,4.06232708 C8.73405095,4.07432708 8.73105095,4.08732708 8.72805095,4.11132708 C8.28005095,4.13232708 7.84605095,4.18432708 7.42005095,4.30132708 C6.14605095,4.64932708 5.44005095,5.52832708 5.11605095,6.76232708 C5.08305095,6.88632708 5.08705095,7.02332708 5.09205095,7.15332708 C5.09805095,7.31132708 5.19105095,7.42832708 5.30405095,7.52932708 C5.53405095,7.73432708 5.81405095,7.85032708 6.10505095,7.93432708 C6.38405095,8.01632708 6.66805095,8.07932708 6.96605095,8.15432708 C6.84505095,8.38432708 6.84205095,8.64132708 6.86405095,8.91432708 C6.65305095,8.88432708 6.45705095,8.86132708 6.26205095,8.82932708 C5.57005095,8.71632708 4.89805095,8.53132708 4.24105095,8.28932708 C4.12905095,8.24832708 4.08205095,8.17932708 4.07605095,8.07232708 C3.99905095,6.57232708 4.30605095,5.17932708 5.26305095,3.98432708 C5.98205095,3.08532708 6.91805095,2.52932708 8.05505095,2.32532708 C8.24705095,2.29132708 8.44205095,2.27632708 8.63705095,2.25332708 C8.69105095,2.24632708 8.73605095,2.24732708 8.7350673,2.32732708 Z M9.07765095,2.25182708 C10.1716509,2.32182708 11.1366509,2.70782708 11.9516509,3.44782708 C12.7676509,4.19082708 13.2536509,5.12182708 13.4936509,6.18982708 C13.6226509,6.76682708 13.6696509,7.34982708 13.6456509,7.94082708 C13.6346509,8.21582708 13.6356509,8.21582708 13.3816509,8.30982708 C12.5836509,8.60582708 11.7616509,8.79882708 10.9156509,8.89682708 C10.9046509,8.89782708 10.8916509,8.89782708 10.8616509,8.89982708 C10.8786509,8.63682708 10.8846509,8.38382708 10.7496509,8.15082708 C10.9836509,8.09782708 11.2066509,8.05182708 11.4246509,7.99582708 C11.7146509,7.92182708 11.9936509,7.81682708 12.2506509,7.66082708 C12.5826509,7.46082708 12.7076509,7.17482708 12.6176509,6.80082708 C12.3976509,5.89182708 11.9466509,5.13782708 11.1276509,4.64382708 C10.7136509,4.39382708 10.2526509,4.26482708 9.77865095,4.19082708 C9.53865095,4.15282708 9.29365095,4.13482708 9.05165095,4.11382708 C8.99365095,4.10882708 8.97465095,4.08982708 8.97465095,4.03382708 C8.97565095,3.46782708 8.97665095,2.90182708 8.97465095,2.33682708 C8.97465095,2.25782708 9.01365095,2.24682708 9.07765095,2.25182708 Z M7.36745095,6.32652708 C7.57645095,6.51352708 7.67345095,6.75452708 7.69246389,6.99652708 C7.69345095,7.16352708 7.63645095,7.23952708 7.53445095,7.24252708 C7.43645095,7.24552708 7.37345095,7.17552708 7.35945095,7.05152708 L7.35345095,6.96552708 L7.35345095,6.96552708 C7.32345095,6.76752708 7.23245095,6.60752708 7.05545095,6.50552708 C6.83945095,6.38152708 6.57645095,6.45152708 6.42145095,6.66952708 C6.39945095,6.70152708 6.38245095,6.73552708 6.36245095,6.76852708 C6.30845095,6.85952708 6.22545095,6.88852708 6.14345095,6.84552708 C6.06345095,6.80352708 6.03245095,6.71252708 6.07545095,6.62252708 C6.33545095,6.08752708 6.95445095,5.95652708 7.36745095,6.32652708 Z M10.8594509,6.12112708 C11.2004509,6.11912708 11.5254509,6.33812708 11.6434509,6.63412708 C11.6764509,6.71812708 11.6434509,6.80812708 11.5654509,6.84412708 C11.4854509,6.88112708 11.4034509,6.85312708 11.3564509,6.76412708 C11.2814509,6.62212708 11.1794509,6.51112708 11.0234509,6.46312708 C10.7444509,6.37712708 10.4544509,6.56412708 10.3744509,6.88112708 C10.3594509,6.94012708 10.3554509,7.00112708 10.3504509,7.06112708 C10.3414509,7.16912708 10.2784509,7.23812708 10.1844509,7.23812708 C10.0884509,7.23712708 10.0314509,7.17112708 10.0294509,7.05812708 C10.0224509,6.62412708 10.3224509,6.22812708 10.7284509,6.13712708 C10.7784509,6.12512708 10.8304509,6.12412708 10.8594509,6.12112708 Z M3.27825095,2.03782708 C3.69925095,2.28882708 4.03225095,2.63482708 4.32425095,3.02182708 C4.48025095,3.22882708 4.61725095,3.45082708 4.76525095,3.66482708 C4.79325095,3.70582708 4.79325095,3.73582708 4.76225095,3.77582708 C4.36825095,4.28282708 4.08425095,4.84682708 3.88225095,5.45482708 C3.87825095,5.46982708 3.87025095,5.48382708 3.86325095,5.49782708 C3.85125095,5.50182708 3.84125095,5.50582708 3.82925095,5.50882708 C3.69625095,5.28282708 3.55325095,5.06282708 3.43325095,4.83082708 C3.15025095,4.27982708 3.00725095,3.69182708 3.00025095,3.07282708 C2.99625095,2.74482708 3.04025095,2.42082708 3.11925095,2.10182708 C3.14725095,1.98682708 3.17425095,1.97482708 3.27825095,2.03782708 Z M14.5894509,2.08392708 C14.6874509,2.50492708 14.7324509,2.92992708 14.6954509,3.36392708 C14.6304509,4.12192708 14.3584509,4.80092708 13.9244509,5.42092708 C13.9074509,5.44692708 13.8864509,5.47092708 13.8624509,5.50192708 C13.7644509,5.26192708 13.6794509,5.03392708 13.5804509,4.81192708 C13.4174509,4.44692708 13.2094509,4.10792708 12.9674509,3.78992708 C12.9404509,3.75292708 12.9154509,3.72292708 12.9464509,3.67092708 C13.2944509,3.11092708 13.6824509,2.58592708 14.2164509,2.18692708 C14.2944509,2.12892708 14.3754509,2.07692708 14.4584509,2.02792708 C14.5354509,1.98292708 14.5684509,1.99792708 14.5894509,2.08392708 Z M8.38505095,3.45532708 C8.30505095,3.45332708 8.23605095,3.51532708 8.23205095,3.59432708 C8.22905095,3.67532708 8.29905095,3.75032708 8.38005095,3.75132708 C8.45605095,3.75132708 8.52605095,3.68132708 8.52805095,3.60532708 C8.52905095,3.52632708 8.46505095,3.45832708 8.38505095,3.45532708 Z M9.34265095,3.45582708 C9.26065095,3.45182708 9.19765095,3.50982708 9.19465095,3.59482708 C9.19165095,3.67882708 9.24965095,3.74582708 9.32865095,3.75082708 C9.40465095,3.75482708 9.47565095,3.68882708 9.47765095,3.60882708 C9.48065095,3.52582708 9.42265095,3.45982708 9.34265095,3.45582708 Z M4.10975095,2.15442708 C4.66375095,2.29342708 5.15875095,2.55342708 5.64075095,2.85842708 C5.44775095,3.03942708 5.26375095,3.21142708 5.07275095,3.38942708 C4.78775095,2.94642708 4.48275095,2.52542708 4.10975095,2.15442708 Z M13.6202509,2.13622708 C13.4322509,2.35322708 13.2552509,2.54322708 13.0952509,2.74722708 C12.9342509,2.95022708 12.7922509,3.16822708 12.6382509,3.38522708 C12.4522509,3.21122708 12.2662509,3.03822708 12.0732509,2.85722708 C12.5572509,2.55222708 13.0532509,2.29322708 13.6202509,2.13622708 Z M8.37705095,2.77832708 C8.29205095,2.77832708 8.23105095,2.84032708 8.23205095,2.92332708 C8.23505095,3.00532708 8.30005095,3.06632708 8.38305095,3.06432708 C8.46605095,3.06232708 8.53005095,2.99832708 8.52805095,2.91732708 C8.52605095,2.83832708 8.46105095,2.77832708 8.37705095,2.77832708 Z M9.33365095,2.77882708 C9.24765095,2.77882708 9.19365095,2.83582708 9.19465095,2.92582708 C9.19665095,3.00982708 9.24865095,3.06282708 9.33265095,3.06382708 C9.41965095,3.06582708 9.47865095,3.00782708 9.47865095,2.92182708 C9.47865095,2.83582708 9.41965095,2.77782708 9.33365095,2.77882708 Z"></path>
  </g>
</svg>
