<svg viewBox="0 0 20 20" xmlns="http://www.w3.org/2000/svg">
  <title>Kubernetes logo</title>
  <g stroke="none" stroke-width="1" fill="none" fill-rule="nonzero">
    <path d="M9.95801206,0 C9.6458002,0 9.39265102,0.289098356 9.39268815,0.645671151 C9.39268853,0.651143653 9.39377821,0.656373001 9.39389415,0.661812952 C9.39343417,0.710262534 9.39115743,0.768631279 9.39268815,0.810814072 C9.40013381,1.01647535 9.44374705,1.17387974 9.46999739,1.36335993 C9.51755339,1.76890763 9.5574021,2.10508199 9.53281115,2.41754289 C9.50889593,2.53536903 9.42446688,2.64312705 9.34920171,2.71802849 L9.33591415,2.96388037 C8.99664945,2.99277346 8.65511531,3.04568159 8.31398244,3.12529829 C6.84608803,3.46788882 5.58225679,4.24511404 4.62004953,5.29450634 C4.5576138,5.25072267 4.4483832,5.17017423 4.41590288,5.14550522 C4.31496905,5.15951611 4.21295798,5.19152831 4.0800908,5.11197998 C3.82709974,4.93692828 3.59668106,4.69529614 3.31786985,4.40422463 C3.19011706,4.26499043 3.09760338,4.13240645 2.94581905,3.99819656 C2.91134996,3.96771808 2.8587464,3.92649523 2.82019152,3.89513743 C2.70152643,3.79788656 2.56156501,3.74716856 2.42639748,3.74241126 C2.25261052,3.73629469 2.08531138,3.80613806 1.97582948,3.94728784 C1.78119534,4.19822081 1.84351007,4.58175647 2.11474457,4.80404432 C2.11749677,4.8062972 2.12042753,4.80804868 2.12320027,4.81025269 C2.16047184,4.84130929 2.20611286,4.88110291 2.2403721,4.9071034 C2.40144088,5.02934594 2.54857319,5.09192245 2.70905945,5.18896389 C3.04717147,5.40359743 3.32747051,5.58156638 3.5497976,5.79614348 C3.63661667,5.89127256 3.65179095,6.05889885 3.66334559,6.13139601 L3.84453916,6.29778062 C2.87456236,7.79826885 2.42564912,9.65167521 2.69094201,11.540137 L2.45418241,11.6109125 C2.39178227,11.6937417 2.3036068,11.8240731 2.21138112,11.8629727 C1.92050001,11.9571498 1.59312973,11.9917332 1.1979051,12.034324 C1.01235089,12.0501837 0.852248457,12.0407192 0.655532364,12.0790244 C0.612236082,12.0874551 0.551910126,12.1036104 0.504537693,12.115033 C0.502891031,12.1153906 0.501352547,12.1158912 0.499705886,12.1162727 C0.49712374,12.1168885 0.493731406,12.1181759 0.491250189,12.118756 C0.158041874,12.2015129 -0.0560119923,12.5163308 0.0128991602,12.8265114 C0.0818265464,13.1367647 0.407297718,13.3254375 0.742505258,13.2511646 C0.74492502,13.2505964 0.748438767,13.2505011 0.750960955,13.2499249 C0.754745264,13.2490349 0.758076891,13.2471476 0.761832578,13.2462019 C0.8085602,13.2356581 0.867118876,13.2239272 0.907995396,13.2126766 C1.10139763,13.1594483 1.24146652,13.0812393 1.41533739,13.0127668 C1.7893959,12.8748605 2.0992046,12.7596548 2.40103039,12.7147645 C2.52709007,12.7046157 2.65990468,12.7947149 2.72597085,12.8327237 L2.97239411,12.7892651 C3.53946443,14.5964628 4.72786157,16.0571586 6.23267037,16.9737134 L6.12999405,17.2270154 C6.16700273,17.3253728 6.20782163,17.4584518 6.18025356,17.5555855 C6.07052542,17.8480727 5.88257544,18.1567939 5.66855438,18.500975 C5.56492714,18.6599858 5.4588712,18.7833862 5.36535717,18.9653619 C5.34298001,19.0089056 5.31448072,19.0757943 5.29287974,19.121813 C5.14758319,19.4413652 5.25416173,19.8094115 5.53326319,19.9475276 C5.81411808,20.0865111 6.16273332,19.939925 6.31360349,19.6197251 C6.31383542,19.6192722 6.31459693,19.6189384 6.31480954,19.6184855 C6.31496416,19.6181279 6.31465492,19.6175915 6.31480954,19.6172458 C6.33629878,19.5718481 6.36674317,19.5121753 6.38487104,19.4694863 C6.46496844,19.2808699 6.49162005,19.1192319 6.54794525,18.9368073 C6.69752398,18.5505908 6.77970566,18.1453518 6.98561538,17.8928414 C7.04200011,17.8236957 7.13392585,17.7971032 7.22923308,17.7708735 L7.35727654,17.5324716 C8.66914658,18.0500737 10.1375748,18.188969 11.6044538,17.8466157 C11.9390857,17.7685165 12.2621406,17.6674389 12.5744433,17.5461301 C12.61043,17.6117434 12.6773083,17.7378727 12.6952391,17.7696318 C12.7920917,17.8020218 12.8978063,17.8187481 12.9839408,17.9496748 C13.1379946,18.2202203 13.2433481,18.5402819 13.371695,18.9268739 C13.4280295,19.1092954 13.4558701,19.2709405 13.5359772,19.4595529 C13.5542353,19.5025427 13.5845274,19.5630535 13.6060387,19.608554 C13.7565915,19.9297941 14.1063115,20.0768813 14.387587,19.9375982 C14.6666541,19.7994086 14.7733501,19.4313956 14.6279704,19.1118836 C14.6063667,19.0658665 14.5766642,18.9989749 14.554285,18.9554324 C14.4607617,18.7734619 14.3547228,18.6512921 14.2510878,18.4922872 C14.037049,18.1481177 13.8595288,17.8622032 13.7497856,17.5697219 C13.7038983,17.4188704 13.7575274,17.3250525 13.793272,17.2270193 C13.7718659,17.2017976 13.726059,17.0593398 13.6990514,16.9923426 C15.2629172,16.0431791 16.4164161,14.5280113 16.9581197,12.778094 C17.0312697,12.7899115 17.1584102,12.8130342 17.1997112,12.8215527 C17.2847335,12.763911 17.3629087,12.6887025 17.5161959,12.70111 C17.8180236,12.745984 18.1278234,12.8612259 18.5018889,12.9991123 C18.6757633,13.0675758 18.8158264,13.1470458 19.0092309,13.2002639 C19.0501078,13.211512 19.1086653,13.2220061 19.1553937,13.2325474 C19.159151,13.2334931 19.1624791,13.2353844 19.1662653,13.2362705 C19.1687895,13.2368506 19.1723013,13.236942 19.1747211,13.2375101 C19.5099479,13.3116909 19.8354771,13.1231286 19.9043271,12.8128569 C19.973161,12.5026581 19.7592061,12.187767 19.4259761,12.1051016 C19.3775059,12.0937723 19.3087656,12.0745313 19.261694,12.0653679 C19.0649759,12.0270735 18.9048762,12.0365173 18.7193212,12.0206676 C18.3240946,11.9780978 17.9967309,11.9434775 17.7058452,11.8493163 C17.5872427,11.8020221 17.5028686,11.6569563 17.4618359,11.5972561 L17.233532,11.5289639 C17.3519025,10.6486883 17.319985,9.73255305 17.1151522,8.81590169 C16.9084122,7.89071551 16.5430494,7.04454288 16.0557738,6.29902426 C16.1143375,6.24429952 16.2249338,6.14362961 16.2562947,6.11401454 C16.265462,6.00974674 16.2575858,5.90042521 16.362595,5.78497038 C16.5849109,5.57038136 16.8652323,5.39244262 17.2033331,5.17779079 C17.3638144,5.0807406 17.5121658,5.01818159 17.6732284,4.8959303 C17.7096507,4.86828526 17.7593857,4.82450556 17.797648,4.79287122 C18.0688249,4.57050868 18.1312598,4.18699607 17.9365631,3.93611474 C17.7418663,3.68523336 17.3645859,3.66160179 17.093409,3.88396433 C17.05481,3.91538765 17.0024342,3.9563797 16.9677815,3.98702346 C16.8160041,4.12124209 16.7222685,4.25381055 16.5945227,4.39305153 C16.3157266,4.68413814 16.0852839,4.92698298 15.8323018,5.10204857 C15.7226768,5.16765115 15.5621075,5.14495213 15.48924,5.1405405 L15.2742236,5.29823336 C14.0481452,3.97667005 12.3788119,3.13173869 10.581318,2.96760542 C10.5762905,2.89017567 10.5697042,2.75021594 10.5680304,2.70809511 C10.4944432,2.63571431 10.4055488,2.57392017 10.383213,2.41754289 C10.3586221,2.10508199 10.3996787,1.76890763 10.4472347,1.36335993 C10.4734851,1.17387974 10.5170983,1.01647535 10.524544,0.810814072 C10.526237,0.76406227 10.5235196,0.696221855 10.5233379,0.645671151 C10.5233008,0.289098356 10.2702259,0 9.95801402,0 L9.95801206,0 Z M9.25014918,4.50728371 L9.08224316,7.55559847 L9.07016357,7.56180684 C9.05890194,7.8345127 8.84055667,8.05226891 8.57248524,8.05226891 C8.46267479,8.05226891 8.36131736,8.01602028 8.27895169,7.95417652 L8.27411984,7.95665984 L5.84250218,6.1847881 C6.58983719,5.42940603 7.54573753,4.87117865 8.6473786,4.61406785 C8.84861422,4.56710152 9.04976013,4.53225233 9.25014918,4.50728371 Z M10.6670829,4.50728371 C11.9532565,4.66988649 13.1427189,5.26853326 14.0541947,6.18602979 L11.6382804,7.94672646 L11.6298247,7.94300342 C11.4153901,8.10399175 11.1132663,8.06404754 10.946121,7.84863603 C10.8776513,7.76038922 10.8417257,7.65662761 10.8374048,7.55187542 L10.834989,7.55063575 L10.6670829,4.50728371 Z M4.96069347,7.32340507 L7.18091866,9.36472049 L7.17850273,9.37713729 C7.37890263,9.55621556 7.40845447,9.8669711 7.2413165,10.0824093 C7.17285143,10.1706597 7.08120593,10.2298504 6.9828137,10.2574856 L6.98039777,10.267419 L4.13445079,11.1117587 C3.98960107,9.75027898 4.30176929,8.42681243 4.96069347,7.32340507 Z M14.9396273,7.32464474 C15.2695097,7.87426264 15.5193133,8.4881306 15.6680254,9.15363357 C15.814954,9.81115691 15.8518277,10.4675045 15.791237,11.1018233 L12.9307945,10.2550002 L12.9283787,10.2425835 C12.6722337,10.1706243 12.5148155,9.90279656 12.5744472,9.63416222 C12.5988781,9.52411516 12.6557077,9.43101845 12.7326896,9.36223516 L12.7314836,9.35602678 L14.9396292,7.32464474 L14.9396273,7.32464474 Z M9.50261226,9.52241139 L10.4122039,9.52241139 L10.9775279,10.2487919 L10.7745911,11.1552154 L9.95801206,11.5587601 L9.13901716,11.1539737 L8.93608034,10.2475502 L9.50261226,9.52241139 Z M12.4186207,12.0082469 C12.4572742,12.0062403 12.4957591,12.0098203 12.5333766,12.0169386 L12.5382085,12.0107302 L15.482,12.5223007 C15.0511748,13.766484 14.2267756,14.8443415 13.1252757,15.5656488 L11.9825482,12.728419 L11.9861701,12.7234523 C11.8811993,12.4727335 11.9862474,12.1787216 12.2277616,12.0591556 C12.2895954,12.0285444 12.3541966,12.011594 12.4186188,12.0082469 L12.4186207,12.0082469 Z M7.47445221,12.0206636 C7.6991029,12.0239019 7.90060483,12.1841774 7.95280327,12.4192417 C7.9772403,12.5292871 7.96534667,12.638323 7.92502025,12.7346274 L7.93347595,12.7458024 L6.80282809,15.5544737 C5.74573378,14.8572041 4.90375442,13.8131857 4.45335148,12.5322362 L7.37177589,12.023149 L7.37660769,12.0293574 C7.40925193,12.0231823 7.44235924,12.0202027 7.47445221,12.0206656 L7.47445221,12.0206636 Z M9.9398927,13.2511666 C10.0181471,13.2482104 10.0975514,13.264715 10.1730285,13.3020753 C10.2719653,13.3510482 10.348394,13.4281577 10.3965005,13.5206103 L10.4073721,13.5206103 L11.8460491,16.1926972 C11.659336,16.2570351 11.4673849,16.3120205 11.2710614,16.3578401 C10.1707757,16.6146346 9.07398577,16.536827 8.08084673,16.1889722 L9.51589976,13.521852 L9.51831569,13.521852 C9.60442545,13.3563848 9.76773351,13.2576682 9.9398927,13.2511666 Z"></path>
  </g>
</svg>
