<svg viewBox="0 0 320 274" xmlns="http://www.w3.org/2000/svg">
    <title>sad robocat</title>
    <defs>
        <linearGradient x1="-3814.24086%" y1="-1902.249%" x2="4670.58061%" y2="2383.85929%" id="linearGradient-1">
            <stop stop-color="#A477B1" offset="0%"></stop>
            <stop stop-color="#EE515A" offset="42.26%"></stop>
            <stop stop-color="#2B3389" offset="100%"></stop>
        </linearGradient>
        <linearGradient x1="-173.475428%" y1="-317.117451%" x2="167.807947%" y2="245.01603%" id="linearGradient-2">
            <stop stop-color="#A477B1" offset="0%"></stop>
            <stop stop-color="#EE515A" offset="42.26%"></stop>
            <stop stop-color="#2B3389" offset="100%"></stop>
        </linearGradient>
        <linearGradient x1="-49.4331616%" y1="-19.1367889%" x2="161.298979%" y2="109.570218%" id="linearGradient-3">
            <stop stop-color="#A477B1" offset="0%"></stop>
            <stop stop-color="#EE515A" offset="42.26%"></stop>
            <stop stop-color="#2B3389" offset="100%"></stop>
        </linearGradient>
        <linearGradient x1="-3632.4341%" y1="-1834.05197%" x2="4756.29137%" y2="2458.02868%" id="linearGradient-4">
            <stop stop-color="#A477B1" offset="0%"></stop>
            <stop stop-color="#EE515A" offset="42.26%"></stop>
            <stop stop-color="#2B3389" offset="100%"></stop>
        </linearGradient>
        <linearGradient x1="-419.761495%" y1="-260.23925%" x2="426.130534%" y2="298.412353%" id="linearGradient-5">
            <stop stop-color="#A477B1" offset="0%"></stop>
            <stop stop-color="#EE515A" offset="42.26%"></stop>
            <stop stop-color="#2B3389" offset="100%"></stop>
        </linearGradient>
        <linearGradient x1="-196.450462%" y1="-115.944331%" x2="221.390233%" y2="158.924767%" id="linearGradient-6">
            <stop stop-color="#A477B1" offset="0%"></stop>
            <stop stop-color="#EE515A" offset="42.26%"></stop>
            <stop stop-color="#2B3389" offset="100%"></stop>
        </linearGradient>
        <linearGradient x1="-196.450462%" y1="-44.8957081%" x2="221.390233%" y2="112.288918%" id="linearGradient-7">
            <stop stop-color="#A477B1" offset="0%"></stop>
            <stop stop-color="#EE515A" offset="33.5124086%"></stop>
            <stop stop-color="#2B3389" offset="100%"></stop>
        </linearGradient>
    </defs>
    <g stroke="none" stroke-width="1" fill="none" fill-rule="evenodd">
        <g transform="translate(-592.000000, -152.000000)" fill-rule="nonzero">
            <g transform="translate(592.000000, 152.000000)">
                <path d="M162.10036,59.6148305 C161.150733,60.0233065 160.480409,60.6686986 160.177167,61.3876163 C159.865945,62.1310426 159.953725,62.939825 160.528289,63.6587428 C161.142753,64.590068 162.363701,65.1374259 163.67243,65.2272906 C164.191134,65.2599687 164.725797,65.2191211 165.244501,65.0965783 C165.499862,65.0312221 165.755224,64.9495269 165.994626,64.8514927 C167.582656,64.0917273 168.340761,62.702909 167.853978,61.3794468 C167.782157,61.1833783 167.686397,60.9954793 167.566696,60.8157499 C166.465449,59.2717107 164.031532,58.789709 162.10036,59.6148305 Z" fill="url(#linearGradient-1)"></path>
                <path d="M294.646,117.366443 C290.669122,110.046351 286.123019,102.992176 281,96.3516484 C282.607674,103.908111 282.715365,111.700943 281.299997,119.301725 C287.915307,130.79523 291.999876,141.151202 294.246004,147.762184 C291.207577,147.858209 287.584541,148.020714 283.584586,148.26447 L290.061436,154.240206 C292.322949,154.144181 294.407541,154.077702 296.245982,154.040769 C296.369057,154.040769 296.507517,154.033382 296.630593,154.033382 C296.884436,154.757266 296.876744,155.133982 296.876744,155.133982 C296.876744,155.133982 297.361354,156.914145 297.076742,160.725616 L306.707402,169.619048 C308.891993,160.297195 309.007376,153.774852 308.999684,152.334471 C308.999684,152.135034 308.999684,152.009462 308.999684,152.009462 C308.999684,152.009462 308.8843,151.617974 308.668918,150.923636 C308.245846,149.549734 307.438163,146.964434 306.361252,143.788208 C305.353571,140.81142 304.122816,137.317572 302.7536,133.786791 C301.661305,131.127625 300.492088,128.505393 299.284409,125.920093 C299.269024,125.88316 299.25364,125.846227 299.230563,125.809294 C299.269024,125.794521 299.315178,125.757588 299.361331,125.735428 C297.807503,122.367152 296.199828,119.390364 294.646,117.366443 Z" fill="url(#linearGradient-2)"></path>
                <path d="M211.169142,255.471138 C185.444155,262.638294 159.983165,266.181276 135.482828,261.435157 C122.715666,258.962451 110.205168,254.231095 98.046665,246.591541 C91.0507592,242.266151 86.7094843,238.272916 84.384849,235.652586 C90.9334275,229.688568 100.847961,221.030407 115.338432,211.508645 C126.690279,203.950284 137.235471,197.595062 154.197242,190.228613 C154.292574,190.184326 154.387907,190.14742 154.483239,190.103132 C156.125883,193.232766 158.369853,196.074532 161.185815,198.370089 C165.908418,202.45928 171.584342,204.791742 177.604927,205.854637 C187.710125,207.64089 198.783309,205.862018 208.001185,202.798815 C208.455845,202.58476 208.82984,202.592142 209.284501,202.378086 C224.376298,197.130045 242.02006,185.851555 245.202684,168.653333 C245.452014,167.391146 245.569346,166.13634 245.628011,164.888915 C242.452721,166.143721 239.204098,167.125422 235.896809,167.819256 C234.686825,173.118965 231.357537,177.946277 226.642267,182.131424 C222.535656,184.810804 219.133035,184.832947 216.221741,183.135269 C215.921078,182.921214 215.576416,182.633347 215.209754,182.293811 C214.79176,181.909988 214.351766,181.459734 213.897105,180.965193 C213.288447,180.308265 212.672455,179.584906 212.107796,178.846785 C211.902466,178.529393 211.682468,178.26367 211.484471,178.02009 C211.403806,177.924134 211.32314,177.835559 211.257141,177.732222 C211.227808,177.695316 211.191142,177.651029 211.169142,177.621504 C211.176475,177.614123 211.176475,177.614123 211.183809,177.606742 C211.946465,176.876002 212.899785,175.968113 214.117102,175.023318 C216.009077,173.273971 217.893718,171.185088 219.521696,168.963344 C207.949852,168.195698 196.561339,164.099125 186.881469,156.62934 C181.887536,159.810642 178.624247,163.656253 179.232905,167.487101 C179.284238,167.848781 179.372237,168.203079 179.489569,168.549996 C181.381543,174.115429 191.956067,178.08652 200.616617,179.341326 C203.476579,179.754674 205.368554,180.064685 206.791201,179.953967 C206.798534,179.953967 206.805867,179.953967 206.805867,179.953967 C207.15053,181.090673 207.825187,182.352861 207.913186,183.519092 C208.155183,185.630118 206.541871,188.715465 203.711242,191.350557 C201.107944,193.690401 197.419327,195.890002 192.865388,197.011946 C192.601392,197.041471 192.337396,197.070996 192.080732,197.10052 C180.508888,198.495569 169.692367,196.222156 163.840446,188.368548 C161.919138,185.785124 160.525824,182.603822 159.829167,178.750829 C158.083857,168.808338 168.306386,157.751284 180.530888,150.953188 C158.047191,127.916428 157.482532,90.9439417 179.364904,67.220729 C173.571648,68.0326622 167.72706,69.2727057 161.948471,70.926097 C161.933805,70.9039534 161.919138,70.889191 161.911805,70.8670473 C158.039857,64.9177911 154.153243,59.7140373 150.567291,55.7577081 C165.556423,51.7497104 181.484208,51.0115893 197.309329,53.8607368 C204.415233,50.4137112 212.07113,48.4503091 219.807692,47.9705303 C217.607722,47.1659783 215.400418,46.4057136 213.207781,45.7044985 C213.156449,45.6897361 213.105116,45.6675925 213.061117,45.65283 C220.849012,35.2084163 229.590227,25.6128418 239.981421,18.3940173 C236.593466,25.0075824 234.012168,32.1673573 232.039528,39.0392648 C232.032195,39.0761709 232.017528,39.1204582 232.010195,39.1573642 C231.210872,42.1172299 230.396883,45.1435265 229.714892,48.1772042 C232.574854,48.4724527 235.412816,48.9669938 238.214111,49.6755901 C240.846743,38.0797074 244.872688,26.3140568 250.607278,17.0653993 C252.220589,14.4524505 253.973232,12.0387945 255.865207,9.89086201 C256.275868,9.78752506 256.473865,9.60299478 256.884527,9.50703903 C256.943192,9.52918267 257.023858,9.55870751 257.104524,9.58823236 C257.185189,9.6177572 257.273188,9.64728205 257.324521,9.66942568 C257.324521,9.67680689 257.331854,9.67680689 257.331854,9.6841881 C272.027656,31.8647276 273.200974,54.0452671 270.685674,70.7563292 C273.582302,74.4174099 275.994936,78.336833 277.93091,82.4481676 C278.810898,79.0528105 279.544222,75.6426909 280.086881,72.1587593 C281.927523,60.4226335 281.560861,48.5241212 278.942896,36.9356197 C276.398264,25.5021236 271.631661,14.6517432 265.07575,4.9159257 C262.303787,0.738160188 257.038525,-1.05547412 252.286589,0.627442021 C230.506882,8.37033252 215.158422,24.7935273 201.9366,43.0029752 C157.335867,33.8133674 112.229141,51.5208929 84.7808436,88.9657771 C59.6058492,82.0569634 33.7855302,78.3294518 8.46387109,87.1869052 C2.99327807,89.1134013 -0.438675722,94.4426357 0.0453177619,100.44356 C1.56329733,114.03237 4.99525112,127.185688 10.9571709,139.615648 C16.9190906,152.045608 25.2716448,163.065756 35.2741768,172.284889 C41.6614242,178.285813 48.8186611,183.555998 56.4085589,187.969962 C56.7018883,188.206161 57.0318839,188.32426 57.3252133,188.560459 C57.7065415,194.140655 58.4545314,199.735613 59.6205157,205.219853 C61.2924932,212.792975 63.4557974,220.417766 66.2130936,227.75469 C67.3644114,230.832655 68.4497302,233.762996 69.9090439,236.700718 C75.8122977,247.37395 92.1507444,256.748088 94.4240471,257.973369 C95.1280377,258.327667 95.8906941,258.689346 96.6900166,259.051026 C120.053702,271.872189 160.885152,283.659984 218.619708,261.94446 C225.615614,259.449611 230.477549,257.323822 232.230192,256.570939 C236.659466,254.489437 240.986074,252.245549 245.188017,249.824512 C253.012579,244.982437 263.653102,237.07716 276.750259,223.968129 C279.375557,221.347799 281.758858,218.690563 283.973495,216.025946 C287.368783,211.796512 290.551407,207.360404 293.5067,202.732385 C294.386688,201.293048 295.215344,199.861093 296,198.43652 L288.241438,190.929828 C272.46765,222.395931 244.946021,243.336427 211.169142,255.471138 Z M114.436449,142.897327 C115.840257,141.31435 118.207939,141.131474 119.780362,142.544378 C123.169279,145.441407 127.153176,146.910199 130.885321,146.965584 C134.363378,146.947047 137.851104,145.601811 140.150976,143.012221 C141.745509,141.156455 142.57411,139.072527 142.770405,136.742437 C142.876432,133.944902 142.420387,131.363246 141.365812,128.771489 C140.54887,126.859834 141.36425,124.664268 143.25343,123.839006 C144.915686,123.120065 146.79716,123.654453 147.863888,125.071484 C148.01394,125.274058 148.154956,125.490407 148.264218,125.725212 C150.018043,129.521425 150.718507,133.503703 150.195004,137.345047 C149.785093,141.162986 148.388417,144.795884 145.914707,147.776294 C142.133895,152.198246 136.750637,154.372435 131.001603,154.432411 C125.483419,154.45197 119.593107,152.361009 114.90641,148.249422 C114.69822,148.063592 114.521784,147.859306 114.3644,147.643947 C113.314039,146.225927 113.324517,144.251004 114.436449,142.897327 Z M65.6411013,128.580737 C64.9664437,130.795101 64.3651185,133.031608 63.7784597,135.282877 C63.7344603,135.460026 63.6831277,135.629794 63.6391283,135.806943 C63.50713,136.345771 63.3824651,136.877219 63.2578001,137.416047 C60.9404979,147.011622 59.004524,156.599815 57.9558714,166.217533 C57.6332091,169.177399 57.3838791,172.137264 57.2445477,175.09713 C57.2445477,175.141417 57.2372145,175.185705 57.2372145,175.229992 C40.6201048,164.106507 14.5724555,140.4202 11.1331685,98.6646885 C11.1771679,98.6277825 11.1918344,98.5834952 11.2211673,98.5392079 C11.3384991,98.3842025 11.4118314,98.2291971 11.4411643,98.1406225 C11.8958249,97.9265674 12.2698199,97.9339486 12.5704825,97.7937056 C30.7055717,100.871671 50.4026398,114.261188 65.7437666,128.211677 C65.7071004,128.344539 65.6777675,128.462638 65.6411013,128.580737 Z M55.3819061,106.71759 C48.5913309,101.831228 41.155431,97.3508329 33.279537,93.7118958 C48.2246691,92.7154323 63.5291297,95.2619502 78.5035948,99.0780363 C75.0276416,104.894431 72.0210154,111.138935 69.381051,117.774644 C69.381051,117.774644 69.381051,117.774644 69.381051,117.774644 C64.8784449,113.855221 60.192508,110.120328 55.3819061,106.71759 Z M71.5883546,137.822014 C81.6788854,97.5870317 109.82384,69.3760427 143.520053,57.8834969 C143.534719,57.9056405 143.556719,57.9277842 143.571385,57.9425466 C147.340668,62.0981685 151.373947,67.220729 155.319227,72.9485489 C131.471548,81.2081241 109.699175,95.9114968 99.8066413,113.951177 C89.1294518,133.467099 92.3120756,173.488026 97.9000003,185.910604 C99.6379769,189.756215 102.600604,190.981496 106.60455,190.361475 C116.797746,188.781895 133.737518,175.28166 154.409906,162.740983 C154.380573,162.792651 154.35124,162.851701 154.321907,162.903369 C151.322614,168.203079 149.753302,174.012092 150.845954,180.300884 C151.109951,181.666408 151.410613,182.913833 151.828608,184.205545 C134.35351,191.874623 123.44899,198.399614 111.730481,206.149885 C97.3940072,215.679029 87.354809,224.381477 80.6522326,230.411926 C80.6302328,230.43407 80.6082331,230.456214 80.5862334,230.470976 C77.6309399,223.687643 60.5738362,182.028087 71.5883546,137.822014 Z" fill="url(#linearGradient-3)"></path>
                <path d="M140.919575,74.1685936 C142.071467,75.2811965 144.233238,75.6166135 145.921628,74.8885131 C147.830929,74.0622419 148.604117,72.2460813 147.475894,70.838966 C146.789492,69.8736194 145.574482,69.3254989 144.288465,69.2600516 C143.546836,69.2191471 142.773648,69.3500416 142.071467,69.652735 C140.083269,70.3072073 139.436316,72.1642723 140.525091,73.7022821 C140.635546,73.8659002 140.769671,74.0213374 140.919575,74.1685936 Z" fill="url(#linearGradient-4)"></path>
                <path d="M248.810766,80.4674869 C241.739238,73.6478678 232.620112,70.2564103 223.508299,70.2564103 C213.913838,70.2564103 204.334002,74.0149086 197.17472,81.4878604 C183.221799,96.0593824 183.675196,119.30775 198.191207,133.314029 C211.529848,146.182482 232.15209,146.835814 246.236642,135.560319 C246.200078,135.508934 246.178139,135.464889 246.141575,135.413503 C246.243955,135.406162 246.346335,135.39148 246.448715,135.38414 C247.618771,134.437174 248.74495,133.40946 249.812627,132.293656 C263.780173,117.729475 263.326777,94.4811067 248.810766,80.4674869 Z M207.222254,112.674745 C208.75064,111.213922 211.024937,111.162536 212.436317,112.81422 C214.359597,114.774218 216.641207,116.102906 219.003258,116.844329 C221.145923,117.497662 223.537226,117.490321 225.833461,116.690172 C229.146183,115.500959 231.603301,112.872947 232.919614,109.57692 C234.096984,105.97992 234.279805,101.641497 232.787983,97.4425492 C232.129826,95.4385061 233.153626,93.2949875 235.040341,92.5976099 C236.7808,92.0250262 238.623639,92.7370854 239.508494,94.2566346 C239.640125,94.4768591 239.742505,94.7191061 239.830259,94.9760347 C241.950986,100.907415 241.716975,107.117746 239.713254,112.307704 C237.672968,117.607774 233.6509,121.806721 228.305205,123.759379 C224.582964,125.044022 220.772968,125.168815 217.145793,124.104397 C213.482055,123.150091 209.993824,120.999231 207.156438,118.077586 C206.768857,117.673841 206.498281,117.204029 206.31546,116.712194 C205.810873,115.32478 206.096074,113.746504 207.222254,112.674745 Z" fill="url(#linearGradient-5)"></path>
                <path d="M271.994014,144.729071 L266.848539,139.714515 C282.31424,118.335891 280.177001,88.0482695 260.817428,69.1843409 L260.817428,69.1843409 C239.723179,48.6291124 206.061676,49.3041488 185.78719,70.6827733 C165.505384,92.0613978 166.171441,126.176698 187.26569,146.731926 C197.542,156.746202 210.797269,161.71625 224.0379,161.71625 C235.748794,161.71625 247.437731,157.806974 257.047984,150.0626 L262.193459,155.077156 L308.019653,199.733409 C309.395684,201.068645 311.159637,201.736264 312.923591,201.736264 C314.782695,201.736264 316.6418,201.001884 318.025149,199.533123 C320.733293,196.6772 320.645462,192.137395 317.827528,189.385323 L271.994014,144.729071 Z M255.488971,138.601818 C238.815585,156.175017 211.141277,156.731366 193.801833,139.833203 C176.46239,122.93504 175.913442,94.887649 192.586828,77.3144494 C201.135781,68.3016011 212.583181,63.761796 224.045219,63.761796 C234.929032,63.761796 245.827483,67.8491042 254.273966,76.0830643 L254.273966,76.0830643 C271.613409,92.9812276 272.162358,121.028618 255.488971,138.601818 Z" fill="url(#linearGradient-6)"></path>
                <path d="M204.09436,237.533855 C203.772556,240.636763 206.020082,243.416689 209.118765,243.740414 C212.218621,244.064261 214.990414,241.806864 215.312339,238.702788 C217.422402,218.357102 227.185184,212.473104 248.069972,219.147746 C251.0401,220.09698 254.213071,218.450675 255.157029,215.475375 C256.099991,212.503216 254.463036,209.325109 251.496062,208.376883 C223.907671,199.559812 206.957688,209.925022 204.09436,237.533855 Z" fill="url(#linearGradient-7)" transform="translate(229.743700, 224.542353) rotate(2.000000) translate(-229.743700, -224.542353) "></path>
            </g>
        </g>
    </g>
</svg>
