<svg xmlns="http://www.w3.org/2000/svg" role="img" xmlns:xlink="http://www.w3.org/1999/xlink" viewBox="-7.72 -9.72 919.44 1025.44"><defs><linearGradient id="a" x1="-293.285" x2="273.543" y1="525.144" y2="-92.635" gradientTransform="matrix(1 0 0 -1 0 1008.073)" gradientUnits="userSpaceOnUse"><stop offset="0" stop-color="#a677b4"/><stop offset=".363" stop-color="#f0515a"/><stop offset="1" stop-color="#2b338c"/></linearGradient><linearGradient id="b" x1="-242.738" x2="324.09" y1="571.522" y2="-46.257" xlink:href="#a"/><linearGradient id="c" x1="169.446" x2="736.275" y1="949.711" y2="331.932" xlink:href="#a"/><linearGradient id="d" x1="-162.086" x2="404.743" y1="645.522" y2="27.743" xlink:href="#a"/><linearGradient id="e" x1="-63.571" x2="503.258" y1="735.912" y2="118.133" xlink:href="#a"/><linearGradient id="f" x1="-22.8" x2="544.028" y1="773.32" y2="155.541" xlink:href="#a"/><linearGradient id="g" x1="65.211" x2="632.039" y1="854.072" y2="236.293" xlink:href="#a"/></defs><path fill="url(#a)" d="M114.91 853.236l-48.1 140.7h-53.9l48.2-140.7h-38.4l15.2-44.4h130.5l-15.2 44.4h-38.3z"/><path fill="url(#b)" d="M245.71 949.836l-15.1 44.1H91.21l63.3-185.1h121.8l-14.7 42.7h-65.9l-9.2 27h67.4l-14 41.1h-67.4l-10.4 30.2h83.6z"/><path fill="url(#c)" fill-rule="evenodd" d="M455.81 359.836v7.7m203.3 242.1l6.7-1.8.8 5.2c3.8 23.9 2.1 44.6-7.6 65.7 15 2.1 28.1 9.3 35 24.6 4.9 10.8 9.6 23.4 9.7 35.4 0 8.9-2.8 17.8-9.8 23.6a23.25 23.25 0 0 1-14.7 5.3h-78.3c-4.5 12.3-13.4 23.6-26.4 27a60.413 60.413 0 0 1-11.1 1.5c-4 .2-7.9.3-11.8.3-10.1.1-20.2 0-30.3 0q-23.7-.3-47.4-.9a25.256 25.256 0 0 1-22.3-14.5 25.17 25.17 0 0 1-22.2 14.5c-15.9.4-31.7.7-47.5.9-10.1.1-20.2.2-30.3 0-3.9 0-7.8-.1-11.8-.3a52.948 52.948 0 0 1-11.2-1.5c-13-3.4-21.8-14.8-26.4-27h-77.6a23.251 23.251 0 0 1-14.7-5.3c-7-5.8-9.8-14.7-9.8-23.6 0-12 4.8-24.6 9.6-35.4a40.282 40.282 0 0 1 11.6-15 47.252 47.252 0 0 1 22.7-9.6c-9.7-21.1-11.4-41.8-7.6-65.7l.8-5.2 7.5 2a106.114 106.114 0 0 1 3.6-13.4 87.027 87.027 0 0 1 27.7-40.3 72.345 72.345 0 0 1 15.1-9.3 267.428 267.428 0 0 1 5.7-42.6 194.114 194.114 0 0 1 16.6-54.8 75.856 75.856 0 0 1-10.2-16.1c-.4-.9-.8-1.8-1.1-2.7a233.496 233.496 0 0 1-66.3-56.2c-11-13.5-27.1-34.5-28.5-52.2-.7-6.2-.9-12.4-1-18.5a330.97 330.97 0 0 1 2.4-44.5c1-8.6 2.4-17.2 4.1-25.7a238.709 238.709 0 0 1-29.7-42.8 216.655 216.655 0 0 1-24.8-77.5 211.706 211.706 0 0 1 6.1-80.4 30.303 30.303 0 0 1 29.2-22.2c51.2 0 95.4 20.9 136.5 47.9a240.79 240.79 0 0 1 251.6 0c41-27 85.2-47.9 136.4-47.9a29.986 29.986 0 0 1 29.1 22.3 213.998 213.998 0 0 1 6 80.4 216.656 216.656 0 0 1-24.8 77.5 238.193 238.193 0 0 1-29.6 42.8c1.6 8.1 2.9 16.2 4 24.5a326.747 326.747 0 0 1 2.5 45.3c-.1 6.3-.3 12.6-1 18.7-1.6 18.2-17.2 38.6-28.5 52.4a235.124 235.124 0 0 1-66.3 56.2l-1.2 2.7a138.46 138.46 0 0 1-7.1 13.1 61.906 61.906 0 0 1-8.2 10.7 156.966 156.966 0 0 1 5.6 14.9 204.235 204.235 0 0 1 7.7 32.9c1.2 5.7 2.3 11.5 3.1 17.2 22.7-38 52.9-72.3 90.9-93.4 22.3-12.4 47.6-20.3 73.3-19.6 27.3.7 54.1 13.4 74.8 30.8 22.7 19.1 41.2 46.4 44.3 76.5a43.56 43.56 0 0 1-1 14.8c-3.9 16.1-16.3 28.7-31 35.6-18.8 8.8-42.3 8.5-58.1-6.4-8.9-8.5-11.7-17.8-16.2-28.7-2.7-6.4-5.5-11.3-11.2-15.6a39.167 39.167 0 0 0-26.4-7.9c-13.5.9-25.5 8.6-35 17.8a181.215 181.215 0 0 0-15 16.6 282.344 282.344 0 0 0-24.3 35.2 227.28 227.28 0 0 0-14.8 29.1 13.026 13.026 0 0 1-.8 1.7 3.709 3.709 0 0 0 .2.9zm20.7-85.2a8.571 8.571 0 0 1 3.6.7c4.6-5.4 9.4-10.7 14.4-15.6 1.6-1.5 3.2-3 4.7-4.3a48.403 48.403 0 0 1-15-16.5 52.715 52.715 0 0 1-6.5-18.2 233.54 233.54 0 0 0-28.2 29.4c-.5 6.9 6.3 14.9 11 18.6 4.4 3.5 10.2 6.2 16 5.9zm-7.1 14.3a42.533 42.533 0 0 1-18-8.4 48.919 48.919 0 0 1-13.1-15.6 324.48 324.48 0 0 0-24 40.1 68.69 68.69 0 0 1 7.3 5.1 77.104 77.104 0 0 1 20 24 311.92 311.92 0 0 1 27.8-45.2zm122.2-38.8a5.835 5.835 0 0 1-.6 2.6c15.2 14.9 14.5 32.3 24 41.3 16.7 15.9 53.8-2 51.5-24.9-2.1-19.9-13.6-39.7-29.6-55.3-.1-.1-.2-.2-.3-.2a12.018 12.018 0 0 0-8.5-3.2c-20.2-.9-35.8 20.3-36.5 39.7zm-14.2-7.3a59.987 59.987 0 0 1 4.3-14.6c6.5-14.8 18.7-26.9 33.6-31.2-14.4-8.8-30.3-14.2-45.6-14.6a85.163 85.163 0 0 0-13.3.6c-1.4 1-2.7 2-3.4 2.6a23.913 23.913 0 0 0-2.3 2.2c-10.1 11.4-8.9 33.4-.2 45.2a8.229 8.229 0 0 1 1.2 2.5 62.15 62.15 0 0 1 25.7 7.3zm-42.3-6.1a57.172 57.172 0 0 1-6.5-25.6 54.04 54.04 0 0 1 4.4-23.1 144.874 144.874 0 0 0-24.8 11c-4.7 2.6-9.4 5.6-14.1 8.8 0 .1-.1.1-.1.2-4.3 6.3-.2 17.5 3.2 23.4 3.1 5.3 7.9 10.8 13.5 13.2a5.443 5.443 0 0 1 1.8 1.1 73.639 73.639 0 0 1 22.6-9zm-304.5-411a7.1 7.1 0 1 1-7.1 7.1 7.002 7.002 0 0 1 7.1-7.1zm0 31.3a7.1 7.1 0 1 1-7.1 7.1 7.127 7.127 0 0 1 7.1-7.1zm43.9-31.3a7.1 7.1 0 1 1-7.1 7.1 7.127 7.127 0 0 1 7.1-7.1zm0 31.3a7.1 7.1 0 1 1-7.1 7.1 7.127 7.127 0 0 1 7.1-7.1zm-16-54.6v84.9c45.4 1 90 13.6 117.4 37.7 31.6 27.9 52.7 76.2 50.4 101.6-2 22.8-38.4 38.2-86.9 46.2a44.114 44.114 0 0 1 5 14 63.712 63.712 0 0 1-.1 20.9c18.3-2.1 34.8-4.9 49.5-8a484.156 484.156 0 0 0 76.5-23 27.403 27.403 0 0 0 1.7-7s10.5-95.6-43.7-173.9c-41.9-60.5-105.6-91.6-169.8-93.4zm-11.9 84.9v-84.9c-65.3 1.9-130 34-171.6 96.2-52 77.8-41.8 171.2-41.8 171.2a30.666 30.666 0 0 0 2 7.2 490.703 490.703 0 0 0 76.1 22.8c14.8 3.1 31.2 5.9 49.6 8a63.71 63.71 0 0 1-.1-20.9 44.114 44.114 0 0 1 5-14c-48.5-8-84.9-23.5-86.9-46.2-2.3-25.4 18.8-73.7 50.4-101.6 27.3-24.2 71.9-36.8 117.3-37.8zm-81.8 232.9a536.695 536.695 0 0 1-55.9-8.8 490.636 490.636 0 0 1-65.4-18.7 169.716 169.716 0 0 0 10.7 14.6c26.3 32.2 59.4 54.1 99.1 67.8a310.292 310.292 0 0 0 38.7 10.4c0-.1-.1-.3-.1-.4a21.407 21.407 0 0 1-1.1-10.9c1.6-9.2 8.5-15 17.4-18.7-16.8-5.7-31.9-15.2-40.7-30.3a27.449 27.449 0 0 1-2.7-5zm42.6 59c1.9 4.9 8.2 8.7 16.1 11.3 9.6 1.1 19.3 2 29 2.6 9.8-.6 19.6-1.4 29.2-2.6 7.4-2.4 13.4-5.8 15.7-10.3 10-19.4-96.8-18.9-90-1zm254.1-86.4a497.66 497.66 0 0 1-65.2 18.6 540.999 540.999 0 0 1-55.9 8.8c-.8 1.7-1.6 3.3-2.5 4.9-8.8 15-23.8 24.6-40.6 30.3 8.7 3.7 15.4 9.4 17.1 18.3a21.166 21.166 0 0 1-1.1 11.7c32.3-6.5 62.7-17.4 89.7-35 19.5-12.7 35.4-29.3 50.3-47.2 2.9-3.3 5.6-6.9 8.2-10.4zm-213.3 31.1c-4.5 7.9-13.8 19.7-33.4 15.7-24.1-7.8-41.4-24-37.1-49.9 3.9-23.4 42.8-38 74.7-37.7h.3c31.9-.3 70.8 14.3 74.6 37.7 3.7 22.4-8.7 37.6-27.8 46.3-28.3 10.5-38.2-3.2-42.6-11.9-2.1-4.2-3-6.4-4.1-6.5h-.3c-.9.4-2 2.4-4.3 6.3zm4.3-61c-19.3 0-42.7 5.6-45 17.6-3.8 19.9 25.7 29.5 45 29.5h.4c19.3-.1 48.5-9.7 44.7-29.5-2.3-12-25.7-17.6-45-17.6zm-53.8-39a7.2 7.2 0 0 1-14.4 0 32.262 32.262 0 0 0-7.6-21.2c-4.5-5.1-10.6-8.3-17.3-8.3a21.712 21.712 0 0 0-12.4 3.9 27.534 27.534 0 0 0-9.4 11.3 7.135 7.135 0 1 1-12.9-6.1 43.545 43.545 0 0 1 14.3-17.1 36.07 36.07 0 0 1 20.5-6.4 36.88 36.88 0 0 1 28 13.2 47.156 47.156 0 0 1 11.2 30.7zm107.7 0a7.2 7.2 0 0 0 14.4 0 32.262 32.262 0 0 1 7.6-21.2 22.99 22.99 0 0 1 17.3-8.3 21.712 21.712 0 0 1 12.4 3.9 27.534 27.534 0 0 1 9.4 11.3 7.18 7.18 0 0 0 13-6.1 43.545 43.545 0 0 0-14.3-17.1 36.07 36.07 0 0 0-20.5-6.4 36.88 36.88 0 0 0-28 13.2 46.708 46.708 0 0 0-11.3 30.7zm5.8 191.4a195.74 195.74 0 0 1-47.2 8.9 199.139 199.139 0 0 1-106.3-23.5c-6.3-1.8-12.4-3.9-18.5-6.1a122.594 122.594 0 0 0 59.7 43.2c-24.3-4.1-48.9-11.6-67.9-24.8-12.3 26.6-19.8 63.6-13.8 114.1q2.1 17.25 5.4 32.7c32-14.5 54.4-8.7 82.2 9.8 3.2-43.9 12.4-76.9 16.8-90.4 1.9-5.7 4.4-8.5 7.8-8.8 3.6-.3 9.7-.1 9.5 10.5-1.1 4.3-2 9.4-2.7 13.1-1.9 9.8-3.4 19.8-4.9 29.7-1.4 9.8-2.8 19.6-4 29.5-.8 6.3-1.6 12.8-2.1 19.2-.2 3.6-.4 7.2-.5 10.8a180.763 180.763 0 0 0 45.3-.3c-.1-3.5-.3-7.1-.5-10.6-1.1-15.8-3.5-32.4-5.8-48.1-1.4-9.4-2.9-18.9-4.7-28.2-1.1-5.3-2.3-12-4.2-17.1.3-10.5 14-12.8 17.8-1.2 4.2 12.6 14.2 46.7 17.4 93 25.1-14.4 58.3-25.1 82.3-11.7 2.1-10.1 3.8-20.7 5.2-31.9 5.6-46.7-.4-81.9-11.1-107.9-19.2 11.3-43.6 17.3-67.1 20.3a122.529 122.529 0 0 0 64.9-44.9c-6.1 2.2-12.3 4.3-18.5 6.1a188.363 188.363 0 0 1-34.5 14.6zm-279.2-418.5c25.3 6.8 49.1 19.1 71.7 33.4a235.137 235.137 0 0 0-25.9 24.2c-4.3-7.1-9-14-13.9-20.8a245.416 245.416 0 0 0-31.9-36.8zm-42.1-5.9h2.4c28.4 15.6 53.8 47.3 72.5 78.8-3.8 4.9-7.5 10-11.1 15.2a262.599 262.599 0 0 0-31.9 67c-22.9-30.8-52-87.4-32.7-160.4.3-.1.5-.4.8-.6zm523.3 0h-2.4c-28.4 15.6-53.8 47.3-72.5 78.8 3.1 3.9 6.1 8 8.9 12.2a261.46 261.46 0 0 1 34 70.1c22.9-30.8 52-87.4 32.7-160.4l-.7-.7zm-42.1 5.9c-25.3 6.8-49.2 19.1-71.7 33.4a236.168 236.168 0 0 1 25.9 24.3c4.4-7.1 9-14.1 13.9-20.9a245.414 245.414 0 0 1 31.9-36.8zm-343.5 584.8a354.646 354.646 0 0 0 28.9 74.8c1.7 3.2 2.9 4.1 6.1 6 9.9 6 23.8 12.5 26.2 37.2-11.3-14.4-22.1-24.7-38.7-28.3-8.1-.1-17.3 1.5-23.7 8.1-13.7 14.2-3.8 38.7 4.5 40.9s93.5 0 93.5 0 3.5-15.9-3.1-24.7c-6.5-8.9-16.6-54.2-17.3-102.4-20-17.5-50.9-29.3-76.4-11.6zm239.3 0a361.16 361.16 0 0 1-28.8 74.8c-1.8 3.2-3 4.1-6.1 6-9.9 6-23.8 12.5-26.2 37.2 11.3-14.4 22.1-24.7 38.7-28.3 8.1-.1 17.4 1.5 23.7 8.1 13.7 14.2 3.8 38.7-4.5 40.9s-93.5 0-93.5 0-3.5-15.9 3.1-24.7c6.5-8.9 16.7-54.2 17.4-102.4 19.8-17.5 50.7-29.3 76.2-11.6zm-111.9 107.1c-2.5 0-5.1.1-7.7.1h-6.1a54.828 54.828 0 0 0-3.1-5.2c-1.2-2.2-2.5-6.7-3.2-9a237.254 237.254 0 0 1-5.8-26 334.49 334.49 0 0 1-4.6-49.1 160.273 160.273 0 0 0 46.9-.4 319.302 319.302 0 0 1-5.9 56.9c-1.3 6.6-4.6 22.6-8 28.5a46.363 46.363 0 0 0-2.5 4.2zm186.2-103.1c.7 46.1-28.4 64.3-45.4 77.9 77.4-35.2 86.3 24.7 78.3 31.3h-80.1a43.33 43.33 0 0 0-33.3-40.8 306.785 306.785 0 0 0 15.6-39.8c22.6-12.1 49.2-24.5 64.9-28.6zm-42.3-67.7c19.4 9 31.6 29.5 34.3 52.5-15.7 4.6-32.9 12.8-47.4 20a436.799 436.799 0 0 0 11.9-60.9c.5-3.7.9-7.6 1.2-11.6zm-303.3.4c-19.1 9.2-31 29.6-33.6 52.4 15.5 4.7 32.3 12.7 46.6 19.8a436.803 436.803 0 0 1-11.9-60.9c-.4-3.7-.8-7.5-1.1-11.3zm-42.4 67.3c-.7 46.1 28.4 64.3 45.5 77.9-77.5-35.2-86.3 24.7-78.4 31.3h78.7a45.352 45.352 0 0 1 12.4-29.7 46.171 46.171 0 0 1 20.3-12.1c-1.6-3.3-3.1-6.6-4.6-10q-6.45-14.85-11.7-30.3c-21.9-11.5-47-23.1-62.2-27.1z"/><path fill="url(#d)" d="M389.81 993.936h-62.2l-8.1-69.6-28.4 26.9-14.6 42.7h-53.6l63.3-185.1h53.6l-26.1 76.4 77-76.4h51l-69.8 67.6 17.9 117.5z"/><path fill="url(#e)" fill-rule="evenodd" d="M501.91 853.236l-48.1 140.7h-49.8l-1.2-8.3 45.3-132.4h-37.9l45.8-44.4h167.5l-83.3 44.4h-38.3z"/><path fill="url(#f)" d="M557.31 996.736q-39 0-54.8-25.5-15.75-25.5-1-68.3c9.5-27.2 25.1-49.7 47-67.5q32.7-26.55 74.6-26.6c25.7 0 43.9 8.4 54.4 25.1 10.4 16.7 10.7 39.1 1.1 67-10 28.9-26.3 52.2-48.7 69.6-22.6 17.5-46.7 26.2-72.6 26.2zm14.1-41.3c9.7 0 18-4.1 25.1-12.4s14.5-23.4 22.1-45.3c11-31.8 7.8-47.6-9.5-47.6-18.8 0-34.4 18.1-47 54.3q-17.7 51 9.3 51z"/><path fill="url(#g)" d="M798.31 993.936h-46.3l-23-81.6c-3-10.5-5-23.3-6.2-38.5-1.1 11.9-3.1 22.1-5.9 30.4l-30.7 89.7h-46.1l63.3-185.2h53.6l20 67.8c4 13.5 6.4 25.4 7.3 35.6a283.939 283.939 0 0 1 12.3-48.6l18.7-54.8h46.4z"/></svg>