<svg xmlns="http://www.w3.org/2000/svg" xmlns:xlink="http://www.w3.org/1999/xlink" viewBox="0 0 800 850">
<style type="text/css">
	.st12{fill:url(#SVGID_1_);}
	.st13{fill:url(#SVGID_2_);}
	.st14{fill:url(#SVGID_3_);}
	.st15{fill:url(#SVGID_4_);}
	.st16{fill:url(#SVGID_5_);}
	.st17{fill:url(#SVGID_6_);}
	.st18{fill:url(#SVGID_7_);}
	.st19{fill:url(#SVGID_8_);}
	.st20{fill:url(#SVGID_9_);}
	.st21{fill:url(#SVGID_10_);}
	.st22{fill:url(#SVGID_11_);}
	.st23{fill:url(#SVGID_12_);}
	.st24{fill:url(#SVGID_13_);}
	.st25{fill:url(#SVGID_14_);}
	.st26{fill:url(#SVGID_15_);}
	.st27{fill:url(#SVGID_16_);}
	.st28{fill:url(#SVGID_17_);}
	.st29{fill:url(#SVGID_18_);}
	.st30{fill:url(#SVGID_19_);}
	.st31{fill:url(#SVGID_20_);}
	.st32{fill:url(#SVGID_21_);}
	.st33{fill:url(#SVGID_22_);}
	.st34{fill:url(#SVGID_23_);}
	.st35{fill:url(#SVGID_24_);}
	.st36{fill:url(#SVGID_25_);}
	.st37{fill:url(#SVGID_26_);}
	.st38{fill:url(#SVGID_27_);}
	.st39{fill:url(#SVGID_28_);}
	.st40{fill:url(#SVGID_29_);}
	.st41{fill:url(#SVGID_30_);}
	.st42{fill:url(#SVGID_31_);}
	.st43{fill:url(#SVGID_32_);}
	.st44{fill:url(#SVGID_33_);}
	.st45{fill:url(#SVGID_34_);}
	.st46{fill:url(#SVGID_35_);}
	.st47{fill:url(#SVGID_36_);}
	.st48{fill:url(#SVGID_37_);}
</style>
<g>
	<g>
		<linearGradient id="SVGID_1_" gradientUnits="userSpaceOnUse" x1="-56.8858" y1="64.257" x2="664.3383" y2="727.7831">
			<stop  offset="0" style="stop-color:#A477B1"/>
			<stop  offset="0.4226" style="stop-color:#EE515A"/>
			<stop  offset="1" style="stop-color:#2B3389"/>
		</linearGradient>
		<path class="st12" d="M733.42,625c-5,14.51-8.54,28.86-10.8,42.88c-0.81-9.03-2.9-19.51-6.45-31.27L698.6,576.8h-47.39
			l-15.8,46.27c-0.48-9.03-2.74-17.25-7.09-24.02c-9.03-14.67-25.15-22.09-47.56-22.09H433.09l-40.46,39.17h33.53l-39.98,116.71
			l1.13,7.42h43.85l42.4-124.13h24.83c-10.96,12.57-19.34,27.24-25.15,43.85c-8.71,25.15-8.54,45.14,0.81,60.13
			c9.35,14.99,25.31,22.57,48.36,22.57c22.89,0,44.01-7.74,63.84-23.05c9.67-7.42,18.06-16.28,25.15-26.12l-15.96,46.75h40.62v-0.64
			l27.08-78.99c2.58-7.42,4.19-16.28,5.32-26.76c0.97,13.38,2.9,24.66,5.48,33.85l20.15,72.06h40.79l55.78-163.14h-40.79L733.42,625
			z M576.41,654.83c-6.61,19.34-13.22,32.73-19.34,39.98c-6.29,7.25-13.7,10.96-22.09,10.96c-15.8,0-18.54-14.99-8.22-44.82
			c11.12-31.92,24.83-47.88,41.43-47.88C583.34,612.91,586.24,626.78,576.41,654.83z"/>
		<linearGradient id="SVGID_2_" gradientUnits="userSpaceOnUse" x1="-220.5173" y1="242.1172" x2="500.7069" y2="905.6434">
			<stop  offset="0" style="stop-color:#A477B1"/>
			<stop  offset="0.4226" style="stop-color:#EE515A"/>
			<stop  offset="1" style="stop-color:#2B3389"/>
		</linearGradient>
		<polygon class="st13" points="375.7,576.48 307.67,643.7 330.73,576.48 283.49,576.48 240.93,700.77 174.19,700.77 183.22,674.01
			242.71,674.01 255.12,637.74 195.64,637.74 203.7,614.04 261.73,614.04 274.79,576.48 179.68,576.48 167.42,576.48 64.57,576.48
			51.19,615.49 85.05,615.49 42.65,739.62 90.04,739.62 132.44,615.49 154.04,615.49 111.65,739.62 227.72,739.62 234.49,739.62
			274.95,739.62 287.85,701.9 312.83,678.2 320.09,739.62 374.9,739.62 359.1,635.97 420.52,576.48 		"/>
		<linearGradient id="SVGID_3_" gradientUnits="userSpaceOnUse" x1="-371.8123" y1="406.5683" x2="349.4119" y2="1070.0945">
			<stop  offset="0" style="stop-color:#A477B1"/>
			<stop  offset="0.4226" style="stop-color:#EE515A"/>
			<stop  offset="1" style="stop-color:#2B3389"/>
		</linearGradient>
		<path class="st14" d="M105.07,795.09c4.3-12.96,4.07-25.4-2.47-34.39c-6.67-9.39-16.55-11.11-29.65-11.11H39.48L9.35,840.33h35.32
			c12.57,0,24.78-2.91,36.89-12.3C92.75,819.43,101.12,807,105.07,795.09z M76.18,794.43c-2.02,6.08-5.1,12.17-10.03,17.46
			c-2.29,2.51-4.93,4.5-7.93,5.95c-4.05,1.85-6.35,1.59-10.05,1.59H44.2l16.34-49.2h3.18c6.35,0,10.67-0.26,13.24,5.16
			C79.12,780.41,78.21,788.35,76.18,794.43z"/>
		<linearGradient id="SVGID_4_" gradientUnits="userSpaceOnUse" x1="-336.1206" y1="367.773" x2="385.1035" y2="1031.2992">
			<stop  offset="0" style="stop-color:#A477B1"/>
			<stop  offset="0.4226" style="stop-color:#EE515A"/>
			<stop  offset="1" style="stop-color:#2B3389"/>
		</linearGradient>
		<path class="st15" d="M84.38,840.33H107l11.49-17.86h24.21l-0.77,17.86h28.44l1.69-90.74h-29.37L84.38,840.33z M144.52,802.63
			H129.7l16.15-26.32L144.52,802.63z"/>
		<linearGradient id="SVGID_5_" gradientUnits="userSpaceOnUse" x1="-293.2657" y1="321.1917" x2="427.9584" y2="984.7179">
			<stop  offset="0" style="stop-color:#A477B1"/>
			<stop  offset="0.4226" style="stop-color:#EE515A"/>
			<stop  offset="1" style="stop-color:#2B3389"/>
		</linearGradient>
		<path class="st16" d="M251.14,787.95c-6.57-4.1-15.22-5.56-23.25-7.28c-3.18-0.79-9.48-1.72-7.9-6.48
			c1.58-4.76,7.22-5.82,10.93-5.82c7.01,0,11.25,2.38,11.65,9.13l25.35-7.01c-0.33-15.74-13.39-22.22-29.13-22.22
			c-9,0-19.22,1.72-28.35,6.88c-8.99,5.16-16.25,13.89-19.2,22.75c-7.16,21.56,11.54,26.19,27.51,29.5
			c3.84,0.79,10.5,1.85,8.65,7.41c-1.67,5.03-8.99,5.56-12.56,5.56c-8.07,0-13.19-2.91-12.89-10.98l-27.33,4.63
			c-1.65,19.71,12.65,27.64,31.7,27.64c18.78,0,43.38-8.73,50.63-30.55C260.25,801.18,258.43,792.71,251.14,787.95z"/>
		<linearGradient id="SVGID_6_" gradientUnits="userSpaceOnUse" x1="-254.2121" y1="278.742" x2="467.0121" y2="942.2682">
			<stop  offset="0" style="stop-color:#A477B1"/>
			<stop  offset="0.4226" style="stop-color:#EE515A"/>
			<stop  offset="1" style="stop-color:#2B3389"/>
		</linearGradient>
		<polygon class="st17" points="332.68,749.59 321.57,783.06 300.13,783.06 311.25,749.59 283.47,749.59 253.33,840.33
			281.11,840.33 292.84,805.01 314.27,805.01 302.55,840.33 330.33,840.33 360.46,749.59 		"/>
		<linearGradient id="SVGID_7_" gradientUnits="userSpaceOnUse" x1="-219.0137" y1="240.4829" x2="502.2104" y2="904.0092">
			<stop  offset="0" style="stop-color:#A477B1"/>
			<stop  offset="0.4226" style="stop-color:#EE515A"/>
			<stop  offset="1" style="stop-color:#2B3389"/>
		</linearGradient>
		<path class="st18" d="M435.73,773.4c2.46-7.41,1.35-14.81-3.29-19.18c-4.33-4.1-11.16-4.63-18.04-4.63h-44.32l-30.13,90.74h41.54
			c8.2,0,18.04-0.13,26.71-5.16c8.02-4.63,13.7-13.36,16.29-21.16c3.6-10.85-0.91-18.78-10.74-20.63l0.09-0.26
			C423.8,790.99,432.57,782.92,435.73,773.4z M398.3,812.02c-0.83,2.51-2.95,4.89-5.42,6.35c-2.86,1.85-5.86,1.72-8.64,1.72H372.2
			l5.45-16.4h10.98c2.51,0,5.69,0,7.67,1.19C398.51,806.21,399.31,808.98,398.3,812.02z M408.31,776.71
			c-0.7,2.12-2.38,4.37-4.62,5.95c-2.6,1.85-5.73,1.72-8.38,1.72h-11.24l5.09-15.34H400C405.3,769.04,410.55,769.96,408.31,776.71z"
			/>
		<linearGradient id="SVGID_8_" gradientUnits="userSpaceOnUse" x1="-176.6165" y1="194.399" x2="544.6076" y2="857.9252">
			<stop  offset="0" style="stop-color:#A477B1"/>
			<stop  offset="0.4226" style="stop-color:#EE515A"/>
			<stop  offset="1" style="stop-color:#2B3389"/>
		</linearGradient>
		<path class="st19" d="M519.32,795.23c9-27.12-0.15-46.96-27.8-46.96c-27.65,0-49.98,19.84-58.98,46.96
			c-8.56,25.79,0.46,46.43,27.97,46.43C488.02,841.65,510.75,821.02,519.32,795.23z M489.51,795.36c-2.9,8.73-9.4,25.53-22.1,25.53
			s-8.05-16.8-5.15-25.53c2.94-8.86,10.15-26.59,22.45-26.59S492.45,786.5,489.51,795.36z"/>
		<linearGradient id="SVGID_9_" gradientUnits="userSpaceOnUse" x1="-145.9824" y1="161.101" x2="575.2418" y2="824.6273">
			<stop  offset="0" style="stop-color:#A477B1"/>
			<stop  offset="0.4226" style="stop-color:#EE515A"/>
			<stop  offset="1" style="stop-color:#2B3389"/>
		</linearGradient>
		<path class="st20" d="M499.16,840.33h22.62l11.49-17.86h24.21l-0.77,17.86h28.44l1.69-90.74h-29.37L499.16,840.33z M559.3,802.63
			h-14.82l16.15-26.32L559.3,802.63z"/>
		<linearGradient id="SVGID_10_" gradientUnits="userSpaceOnUse" x1="-104.7542" y1="116.2877" x2="616.47" y2="779.814">
			<stop  offset="0" style="stop-color:#A477B1"/>
			<stop  offset="0.4226" style="stop-color:#EE515A"/>
			<stop  offset="1" style="stop-color:#2B3389"/>
		</linearGradient>
		<path class="st21" d="M688.77,776.84c2.94-8.86,2.05-16.93-3.91-21.69c-5.25-4.5-13.63-5.55-21.57-5.55h-46.17l-30.13,90.74h28.18
			l11.51-34.65h8.73l1.72,34.65h30.96l-3.27-39.55C677.15,795.89,684.82,788.74,688.77,776.84z M659.58,777.5
			c-2.59,7.8-10.18,8.73-16.26,8.73h-10.19l5.75-17.33h11.25c2.65,0,5.56,0,7.54,1.19C659.97,771.55,660.59,774.46,659.58,777.5z"/>
		<linearGradient id="SVGID_11_" gradientUnits="userSpaceOnUse" x1="-67.3615" y1="75.6435" x2="653.8627" y2="739.1697">
			<stop  offset="0" style="stop-color:#A477B1"/>
			<stop  offset="0.4226" style="stop-color:#EE515A"/>
			<stop  offset="1" style="stop-color:#2B3389"/>
		</linearGradient>
		<path class="st22" d="M737.1,749.59h-33.47l-30.13,90.74h35.32c12.57,0,24.78-2.91,36.89-12.3c11.19-8.6,19.55-21.03,23.51-32.94
			c4.3-12.96,4.07-25.4-2.47-34.39C760.08,751.31,750.2,749.59,737.1,749.59z M740.34,794.43c-2.02,6.08-5.1,12.17-10.03,17.46
			c-2.29,2.51-4.93,4.5-7.93,5.95c-4.05,1.85-6.35,1.59-10.05,1.59h-3.97l16.34-49.2h3.18c6.35,0,10.67-0.26,13.24,5.16
			C743.27,780.41,742.36,788.35,740.34,794.43z"/>
		<g>
			<linearGradient id="SVGID_12_" gradientUnits="userSpaceOnUse" x1="-84.6968" y1="91.8683" x2="765.9061" y2="649.4486">
				<stop  offset="0" style="stop-color:#A477B1"/>
				<stop  offset="0.4226" style="stop-color:#EE515A"/>
				<stop  offset="1" style="stop-color:#2B3389"/>
			</linearGradient>
			<path class="st23" d="M478.03,415.58c-11.67-3.85-28.95,1.63-38.28,4.95c-12.2,4.32-38.43,14.7-35.51,31.71
				c0.44,2.56,1.6,5.04,3.23,7.17c2.27,2.77,5.22,4.73,8.56,6.05c11.7,4.62,28.32,1.42,38.61-2.31
				c13.07-4.35,32.63-15.26,34.6-30.15c0.4-3.46-0.17-7.09-1.98-10.15C485.13,419.13,481.88,416.85,478.03,415.58z M477.51,431.31
				c-0.56,3.91-4.48,8.11-9.61,11.8c-1.03,0.74-2.13,1.46-3.24,2.16c-0.96,0.6-1.93,1.19-2.93,1.74c-2.15,1.2-4.36,2.29-6.51,3.22
				c-1.43,0.62-2.84,1.18-4.2,1.65c0,0,0,0,0,0c-11.37,3.94-29.02,6.28-34.11-0.03c-5.56-6.73,21.68-19.65,41.47-24
				C469.53,425.39,478.32,425.66,477.51,431.31z"/>
			<linearGradient id="SVGID_13_" gradientUnits="userSpaceOnUse" x1="-7.9895" y1="-25.1507" x2="842.6135" y2="532.4296">
				<stop  offset="0" style="stop-color:#A477B1"/>
				<stop  offset="0.4226" style="stop-color:#EE515A"/>
				<stop  offset="1" style="stop-color:#2B3389"/>
			</linearGradient>
			<path class="st24" d="M377.02,225.62c-1.19,0.5-2.03,1.29-2.41,2.17c-0.39,0.91-0.28,1.9,0.44,2.78c0.77,1.14,2.3,1.81,3.94,1.92
				c0.65,0.04,1.32-0.01,1.97-0.16c0.32-0.08,0.64-0.18,0.94-0.3c1.99-0.93,2.94-2.63,2.33-4.25c-0.09-0.24-0.21-0.47-0.36-0.69
				C382.49,225.2,379.44,224.61,377.02,225.62z"/>
			<linearGradient id="SVGID_14_" gradientUnits="userSpaceOnUse" x1="2.2877" y1="-40.8288" x2="852.8907" y2="516.7514">
				<stop  offset="0" style="stop-color:#A477B1"/>
				<stop  offset="0.4226" style="stop-color:#EE515A"/>
				<stop  offset="1" style="stop-color:#2B3389"/>
			</linearGradient>
			<path class="st25" d="M558.81,302.17c-5.17-9.91-11.08-19.46-17.74-28.45c2.09,10.23,2.23,20.78,0.39,31.07
				c8.6,15.56,13.91,29.58,16.83,38.53c-3.95,0.13-8.66,0.35-13.86,0.68l8.42,8.09c2.94-0.13,5.65-0.22,8.04-0.27
				c0.16,0,0.34-0.01,0.5-0.01c0.33,0.98,0.32,1.49,0.32,1.49s0.63,2.41,0.26,7.57l12.52,12.04c2.84-12.62,2.99-21.45,2.98-23.4
				c0-0.27,0-0.44,0-0.44s-0.15-0.53-0.43-1.47c-0.55-1.86-1.6-5.36-3-9.66c-1.31-4.03-2.91-8.76-4.69-13.54
				c-1.42-3.6-2.94-7.15-4.51-10.65c-0.02-0.05-0.04-0.1-0.07-0.15c0.05-0.02,0.11-0.07,0.17-0.1
				C562.92,308.94,560.83,304.91,558.81,302.17z"/>
			<linearGradient id="SVGID_15_" gradientUnits="userSpaceOnUse" x1="-43.7247" y1="29.3642" x2="806.8783" y2="586.9445">
				<stop  offset="0" style="stop-color:#A477B1"/>
				<stop  offset="0.4226" style="stop-color:#EE515A"/>
				<stop  offset="1" style="stop-color:#2B3389"/>
			</linearGradient>
			<path class="st26" d="M443.77,489.38c-35.08,9.71-69.8,14.51-103.21,8.08c-17.41-3.35-34.47-9.76-51.05-20.11
				c-9.54-5.86-15.46-11.27-18.63-14.82c8.93-8.08,22.45-19.81,42.21-32.71c15.48-10.24,29.86-18.85,52.99-28.83
				c0.13-0.06,0.26-0.11,0.39-0.17c2.24,4.24,5.3,8.09,9.14,11.2c6.44,5.54,14.18,8.7,22.39,10.14c13.78,2.42,28.88,0.01,41.45-4.14
				c0.62-0.29,1.13-0.28,1.75-0.57c20.58-7.11,44.64-22.39,48.98-45.69c0.34-1.71,0.5-3.41,0.58-5.1c-4.33,1.7-8.76,3.03-13.27,3.97
				c-1.65,7.18-6.19,13.72-12.62,19.39c-5.6,3.63-10.24,3.66-14.21,1.36c-0.41-0.29-0.88-0.68-1.38-1.14
				c-0.57-0.52-1.17-1.13-1.79-1.8c-0.83-0.89-1.67-1.87-2.44-2.87c-0.28-0.43-0.58-0.79-0.85-1.12c-0.11-0.13-0.22-0.25-0.31-0.39
				c-0.04-0.05-0.09-0.11-0.12-0.15c0.01-0.01,0.01-0.01,0.02-0.02c1.04-0.99,2.34-2.22,4-3.5c2.58-2.37,5.15-5.2,7.37-8.21
				c-15.78-1.04-31.31-6.59-44.51-16.71c-6.81,4.31-11.26,9.52-10.43,14.71c0.07,0.49,0.19,0.97,0.35,1.44
				c2.58,7.54,17,12.92,28.81,14.62c3.9,0.56,6.48,0.98,8.42,0.83c0.01,0,0.02,0,0.02,0c0.47,1.54,1.39,3.25,1.51,4.83
				c0.33,2.86-1.87,7.04-5.73,10.61c-3.55,3.17-8.58,6.15-14.79,7.67c-0.36,0.04-0.72,0.08-1.07,0.12
				c-15.78,1.89-30.53-1.19-38.51-11.83c-2.62-3.5-4.52-7.81-5.47-13.03c-2.38-13.47,11.56-28.45,28.23-37.66
				c-30.66-31.21-31.43-81.3-1.59-113.44c-7.9,1.1-15.87,2.78-23.75,5.02c-0.02-0.03-0.04-0.05-0.05-0.08
				c-5.28-8.06-10.58-15.11-15.47-20.47c20.44-5.43,42.16-6.43,63.74-2.57c9.69-4.67,20.13-7.33,30.68-7.98
				c-3-1.09-6.01-2.12-9-3.07c-0.07-0.02-0.14-0.05-0.2-0.07c10.62-14.15,22.54-27.15,36.71-36.93
				c-4.62,8.96-8.14,18.66-10.83,27.97c-0.01,0.05-0.03,0.11-0.04,0.16c-1.09,4.01-2.2,8.11-3.13,12.22
				c3.9,0.4,7.77,1.07,11.59,2.03c3.59-15.71,9.08-31.65,16.9-44.18c2.2-3.54,4.59-6.81,7.17-9.72c0.56-0.14,0.83-0.39,1.39-0.52
				c0.08,0.03,0.19,0.07,0.3,0.11s0.23,0.08,0.3,0.11c0,0.01,0.01,0.01,0.01,0.02c20.04,30.05,21.64,60.1,18.21,82.74
				c3.95,4.96,7.24,10.27,9.88,15.84c1.2-4.6,2.2-9.22,2.94-13.94c2.51-15.9,2.01-32.02-1.56-47.72
				c-3.47-15.49-9.97-30.19-18.91-43.38c-3.78-5.66-10.96-8.09-17.44-5.81c-29.7,10.49-50.63,32.74-68.66,57.41
				c-60.82-12.45-122.33,11.54-159.76,62.27c-34.33-9.36-69.54-14.41-104.07-2.41c-7.46,2.61-12.14,9.83-11.48,17.96
				c2.07,18.41,6.75,36.23,14.88,53.07c8.13,16.84,19.52,31.77,33.16,44.26c8.71,8.13,18.47,15.27,28.82,21.25
				c0.4,0.32,0.85,0.48,1.25,0.8c0.52,7.56,1.54,15.14,3.13,22.57c2.28,10.26,5.23,20.59,8.99,30.53c1.57,4.17,3.05,8.14,5.04,12.12
				c8.05,14.46,30.33,27.16,33.43,28.82c0.96,0.48,2,0.97,3.09,1.46c31.86,17.37,87.54,33.34,166.27,3.92h0
				c9.54-3.38,16.17-6.26,18.56-7.28c6.04-2.82,11.94-5.86,17.67-9.14c10.67-6.56,25.18-17.27,43.04-35.03
				c3.58-3.55,6.83-7.15,9.85-10.76c4.63-5.73,8.97-11.74,13-18.01c1.2-1.95,2.33-3.89,3.4-5.82l-10.58-10.17
				C527.36,444.57,489.83,472.94,443.77,489.38z M363.35,348.93c-2.73,0.9-5.65-0.5-6.55-3.23c-2.04-5.71-5.75-10.15-10.12-12.76
				c-4.12-2.35-9.15-3.15-13.62-1.68c-3.14,1.09-5.53,2.97-7.34,5.57c-2.02,3.21-3.23,6.55-3.74,10.31c-0.33,2.8-2.78,4.82-5.57,4.5
				c-2.45-0.29-4.31-2.2-4.61-4.59c-0.04-0.34-0.06-0.69-0.03-1.04c0.5-5.65,2.37-10.8,5.59-14.95c3.07-4.2,7.18-7.51,12.12-9.32
				c7.46-2.61,15.29-1.49,22.12,2.36c6.53,3.74,12.07,10.21,14.82,18.23c0.12,0.36,0.19,0.72,0.23,1.08
				C366.93,345.79,365.58,348.1,363.35,348.93z M245.32,317.47c-0.92,3-1.74,6.03-2.54,9.08c-0.06,0.24-0.13,0.47-0.19,0.71
				c-0.18,0.73-0.35,1.45-0.52,2.18c-3.16,13-5.8,25.99-7.23,39.02c-0.44,4.01-0.78,8.02-0.97,12.03c0,0.06-0.01,0.12-0.01,0.18
				c-22.66-15.07-58.18-47.16-62.87-103.73c0.06-0.05,0.08-0.11,0.12-0.17c0.16-0.21,0.26-0.42,0.3-0.54
				c0.62-0.29,1.13-0.28,1.54-0.47c24.73,4.17,51.59,22.31,72.51,41.21C245.41,317.15,245.37,317.31,245.32,317.47z M231.33,287.85
				c-9.26-6.62-19.4-12.69-30.14-17.62c20.38-1.35,41.25,2.1,61.67,7.27c-4.74,7.88-8.84,16.34-12.44,25.33c0,0,0,0,0,0
				C244.28,297.52,237.89,292.46,231.33,287.85z M253.43,329.99c13.76-54.51,52.14-92.73,98.09-108.3c0.02,0.03,0.05,0.06,0.07,0.08
				c5.14,5.63,10.64,12.57,16.02,20.33c-32.52,11.19-62.21,31.11-75.7,55.55c-14.56,26.44-10.22,80.66-2.6,97.49
				c2.37,5.21,6.41,6.87,11.87,6.03c13.9-2.14,37-20.43,65.19-37.42c-0.04,0.07-0.08,0.15-0.12,0.22
				c-4.09,7.18-6.23,15.05-4.74,23.57c0.36,1.85,0.77,3.54,1.34,5.29c-23.83,10.39-38.7,19.23-54.68,29.73
				c-19.55,12.91-33.24,24.7-42.38,32.87c-0.03,0.03-0.06,0.06-0.09,0.08C261.67,446.32,238.41,389.88,253.43,329.99z"/>
			<linearGradient id="SVGID_16_" gradientUnits="userSpaceOnUse" x1="-21.2484" y1="-4.9239" x2="829.3546" y2="552.6564">
				<stop  offset="0" style="stop-color:#A477B1"/>
				<stop  offset="0.4226" style="stop-color:#EE515A"/>
				<stop  offset="1" style="stop-color:#2B3389"/>
			</linearGradient>
			<path class="st27" d="M348.24,242.16c1.46,1.36,4.2,1.77,6.34,0.88c2.42-1.01,3.4-3.23,1.97-4.95c-0.87-1.18-2.41-1.85-4.04-1.93
				c-0.94-0.05-1.92,0.11-2.81,0.48c-2.52,0.8-3.34,3.07-1.96,4.95C347.88,241.79,348.05,241.98,348.24,242.16z"/>
			<linearGradient id="SVGID_17_" gradientUnits="userSpaceOnUse" x1="-11.759" y1="-19.4002" x2="838.8439" y2="538.1801">
				<stop  offset="0" style="stop-color:#A477B1"/>
				<stop  offset="0.4226" style="stop-color:#EE515A"/>
				<stop  offset="1" style="stop-color:#2B3389"/>
			</linearGradient>
			<path class="st28" d="M495.23,254.25c-9.67-9.29-22.14-13.91-34.6-13.91c-13.12,0-26.22,5.12-36.01,15.3
				c-19.08,19.85-18.46,51.52,1.39,70.6c18.24,17.53,46.44,18.42,65.7,3.06c-0.05-0.07-0.08-0.13-0.13-0.2
				c0.14-0.01,0.28-0.03,0.42-0.04c1.6-1.29,3.14-2.69,4.6-4.21C515.7,305.01,515.08,273.34,495.23,254.25z M483.42,293.01
				c-2.09,1.99-5.2,2.06-7.13-0.19c-2.63-2.67-5.75-4.48-8.98-5.49c-2.93-0.89-6.2-0.88-9.34,0.21c-4.53,1.62-7.89,5.2-9.69,9.69
				c-1.61,4.9-1.86,10.81,0.18,16.53c0.9,2.73-0.5,5.65-3.08,6.6c-2.38,0.78-4.9-0.19-6.11-2.26c-0.18-0.3-0.32-0.63-0.44-0.98
				c-2.9-8.08-2.58-16.54,0.16-23.61c2.79-7.22,8.29-12.94,15.6-15.6c5.09-1.75,10.3-1.92,15.26-0.47c5.01,1.3,9.78,4.23,13.66,8.21
				c0.53,0.55,0.9,1.19,1.15,1.86C485.35,289.4,484.96,291.55,483.42,293.01z"/>
			<linearGradient id="SVGID_18_" gradientUnits="userSpaceOnUse" x1="-11.7594" y1="-19.3996" x2="838.8436" y2="538.1807">
				<stop  offset="0" style="stop-color:#A477B1"/>
				<stop  offset="0.4226" style="stop-color:#EE515A"/>
				<stop  offset="1" style="stop-color:#2B3389"/>
			</linearGradient>
			<path class="st29" d="M526.14,339.82l-7.03-6.76c21.13-28.82,18.21-69.65-8.24-95.08h0c-28.82-27.71-74.81-26.8-102.51,2.02
				c-27.71,28.82-26.8,74.81,2.02,102.52c14.04,13.5,32.15,20.2,50.24,20.2c16,0,31.97-5.27,45.1-15.71l7.03,6.76l62.61,60.2
				c1.88,1.8,4.29,2.7,6.7,2.7c2.54,0,5.08-0.99,6.97-2.97c3.7-3.85,3.58-9.97-0.27-13.68L526.14,339.82z M503.59,331.56
				c-22.78,23.69-60.59,24.44-84.28,1.66c-23.69-22.78-24.44-60.59-1.66-84.28c11.68-12.15,27.32-18.27,42.98-18.27
				c14.87,0,29.76,5.51,41.3,16.61h0C525.62,270.06,526.37,307.87,503.59,331.56z"/>
			<linearGradient id="SVGID_19_" gradientUnits="userSpaceOnUse" x1="-195.0356" y1="260.193" x2="655.5673" y2="817.7733">
				<stop  offset="0" style="stop-color:#A477B1"/>
				<stop  offset="0.4226" style="stop-color:#EE515A"/>
				<stop  offset="1" style="stop-color:#2B3389"/>
			</linearGradient>
			<path class="st30" d="M134.43,416.48c-32.91,0-59.68,26.77-59.68,59.68c0,32.91,26.77,59.68,59.68,59.68
				c32.91,0,59.68-26.77,59.68-59.68C194.11,443.25,167.34,416.48,134.43,416.48z M134.43,522.94c-25.8,0-46.78-20.99-46.78-46.78
				s20.99-46.78,46.78-46.78c25.8,0,46.79,20.99,46.79,46.78S160.22,522.94,134.43,522.94z"/>
			<linearGradient id="SVGID_20_" gradientUnits="userSpaceOnUse" x1="-35.3997" y1="16.6643" x2="815.2032" y2="574.2446">
				<stop  offset="0" style="stop-color:#A477B1"/>
				<stop  offset="0.4226" style="stop-color:#EE515A"/>
				<stop  offset="1" style="stop-color:#2B3389"/>
			</linearGradient>
			<path class="st31" d="M665.57,416.48c-32.91,0-59.68,26.77-59.68,59.68c0,32.91,26.77,59.68,59.68,59.68
				c32.91,0,59.68-26.77,59.68-59.68C725.25,443.25,698.48,416.48,665.57,416.48z M665.57,522.94c-25.8,0-46.78-20.99-46.78-46.78
				s20.99-46.78,46.78-46.78c25.8,0,46.79,20.99,46.79,46.78S691.37,522.94,665.57,522.94z"/>
			<linearGradient id="SVGID_21_" gradientUnits="userSpaceOnUse" x1="122.9446" y1="-224.894" x2="973.5475" y2="332.6862">
				<stop  offset="0" style="stop-color:#A477B1"/>
				<stop  offset="0.4226" style="stop-color:#EE515A"/>
				<stop  offset="1" style="stop-color:#2B3389"/>
			</linearGradient>
			<path class="st32" d="M737.42,118.22c-32.91,0-59.68,26.77-59.68,59.68c0,32.91,26.77,59.68,59.68,59.68
				c32.91,0,59.68-26.77,59.68-59.68C797.1,144.99,770.33,118.22,737.42,118.22z M737.42,224.69c-25.8,0-46.78-20.99-46.78-46.79
				c0-25.8,20.99-46.78,46.78-46.78c25.8,0,46.79,20.99,46.79,46.78C784.2,203.7,763.21,224.69,737.42,224.69z"/>
			<linearGradient id="SVGID_22_" gradientUnits="userSpaceOnUse" x1="-79.8768" y1="84.5152" x2="770.7261" y2="642.0955">
				<stop  offset="0" style="stop-color:#A477B1"/>
				<stop  offset="0.4226" style="stop-color:#EE515A"/>
				<stop  offset="1" style="stop-color:#2B3389"/>
			</linearGradient>
			<path class="st33" d="M122.27,177.9c0-32.91-26.77-59.68-59.68-59.68c-32.91,0-59.68,26.77-59.68,59.68
				c0,32.91,26.77,59.68,59.68,59.68C95.49,237.58,122.27,210.81,122.27,177.9z M62.58,224.69c-25.8,0-46.78-20.99-46.78-46.79
				c0-25.8,20.99-46.78,46.78-46.78c25.8,0,46.79,20.99,46.79,46.78C109.37,203.7,88.38,224.69,62.58,224.69z"/>
			<linearGradient id="SVGID_23_" gradientUnits="userSpaceOnUse" x1="75.0637" y1="-151.8505" x2="925.6667" y2="405.7297">
				<stop  offset="0" style="stop-color:#A477B1"/>
				<stop  offset="0.4226" style="stop-color:#EE515A"/>
				<stop  offset="1" style="stop-color:#2B3389"/>
			</linearGradient>
			<path class="st34" d="M336.85,113.95h126.3c29.11,0,52.8-23.69,52.8-52.8c0-29.12-23.69-52.8-52.8-52.8h-126.3
				c-29.11,0-52.8,23.69-52.8,52.8C284.05,90.26,307.74,113.95,336.85,113.95z M336.85,21.24h126.3c22,0,39.9,17.9,39.9,39.91
				c0,22-17.9,39.9-39.9,39.9h-126.3c-22,0-39.9-17.9-39.9-39.9C296.95,39.15,314.85,21.24,336.85,21.24z"/>
			<linearGradient id="SVGID_24_" gradientUnits="userSpaceOnUse" x1="-138.9343" y1="174.609" x2="711.6686" y2="732.1893">
				<stop  offset="0" style="stop-color:#A477B1"/>
				<stop  offset="0.4226" style="stop-color:#EE515A"/>
				<stop  offset="1" style="stop-color:#2B3389"/>
			</linearGradient>
			<path class="st35" d="M115.63,404.94c0.59,0,1.18-0.08,1.77-0.25c3.42-0.98,5.41-4.55,4.43-7.97L86.67,273.69l9.26-2.65
				l-23.11-22.35l-7.81,31.19l9.26-2.65l35.16,123.03C110.24,403.09,112.82,404.94,115.63,404.94z"/>
			<linearGradient id="SVGID_25_" gradientUnits="userSpaceOnUse" x1="-2.7189" y1="-33.1911" x2="847.884" y2="524.3892">
				<stop  offset="0" style="stop-color:#A477B1"/>
				<stop  offset="0.4226" style="stop-color:#EE515A"/>
				<stop  offset="1" style="stop-color:#2B3389"/>
			</linearGradient>
			<path class="st36" d="M128.83,134.72c0.94,0,1.9-0.21,2.8-0.64l113.84-55.01l4.19,8.67l18.07-26.59l-32.06-2.36l4.19,8.67
				l-113.84,55.01c-3.21,1.55-4.55,5.4-3,8.61C124.13,133.38,126.44,134.72,128.83,134.72z"/>
			<linearGradient id="SVGID_26_" gradientUnits="userSpaceOnUse" x1="6.0722" y1="-46.6021" x2="856.6751" y2="510.9782">
				<stop  offset="0" style="stop-color:#A477B1"/>
				<stop  offset="0.4226" style="stop-color:#EE515A"/>
				<stop  offset="1" style="stop-color:#2B3389"/>
			</linearGradient>
			<path class="st37" d="M678.39,395.94l-0.22,0.77c-0.98,3.42,1,6.99,4.42,7.97c0.59,0.17,1.19,0.25,1.78,0.25
				c2.8,0,5.38-1.84,6.2-4.67l0.22-0.77c0.98-3.42-1-6.99-4.42-7.97C682.94,390.52,679.37,392.51,678.39,395.94z"/>
			<linearGradient id="SVGID_27_" gradientUnits="userSpaceOnUse" x1="61.4036" y1="-131.0117" x2="912.0065" y2="426.5686">
				<stop  offset="0" style="stop-color:#A477B1"/>
				<stop  offset="0.4226" style="stop-color:#EE515A"/>
				<stop  offset="1" style="stop-color:#2B3389"/>
			</linearGradient>
			<path class="st38" d="M711.55,303.42c0.59,0.17,1.19,0.25,1.77,0.25c2.81,0,5.39-1.85,6.2-4.68l0.43-1.5
				c0.98-3.42-1.01-6.99-4.43-7.97c-3.42-0.97-6.99,1.01-7.97,4.43l-0.43,1.5C706.14,298.87,708.12,302.44,711.55,303.42z"/>
			<linearGradient id="SVGID_28_" gradientUnits="userSpaceOnUse" x1="47.5212" y1="-109.8337" x2="898.1241" y2="447.7466">
				<stop  offset="0" style="stop-color:#A477B1"/>
				<stop  offset="0.4226" style="stop-color:#EE515A"/>
				<stop  offset="1" style="stop-color:#2B3389"/>
			</linearGradient>
			<path class="st39" d="M700.26,319.44l-0.43,1.5c-0.98,3.42,1,6.99,4.43,7.97c0.59,0.17,1.19,0.25,1.78,0.25
				c2.81,0,5.39-1.85,6.2-4.68l0.43-1.5c0.98-3.42-1-6.99-4.43-7.97C704.8,314.04,701.24,316.02,700.26,319.44z"/>
			<linearGradient id="SVGID_29_" gradientUnits="userSpaceOnUse" x1="33.6396" y1="-88.6569" x2="884.2426" y2="468.9233">
				<stop  offset="0" style="stop-color:#A477B1"/>
				<stop  offset="0.4226" style="stop-color:#EE515A"/>
				<stop  offset="1" style="stop-color:#2B3389"/>
			</linearGradient>
			<path class="st40" d="M692.97,344.94l-0.43,1.5c-0.98,3.42,1.01,6.99,4.43,7.97c0.59,0.17,1.19,0.25,1.77,0.25
				c2.81,0,5.39-1.85,6.2-4.68l0.43-1.5c0.98-3.42-1.01-6.99-4.43-7.97C697.51,339.54,693.94,341.52,692.97,344.94z"/>
			<linearGradient id="SVGID_30_" gradientUnits="userSpaceOnUse" x1="19.757" y1="-67.4787" x2="870.36" y2="490.1016">
				<stop  offset="0" style="stop-color:#A477B1"/>
				<stop  offset="0.4226" style="stop-color:#EE515A"/>
				<stop  offset="1" style="stop-color:#2B3389"/>
			</linearGradient>
			<path class="st41" d="M685.68,370.44l-0.43,1.5c-0.98,3.42,1,6.99,4.43,7.97c0.59,0.17,1.19,0.25,1.78,0.25
				c2.81,0,5.39-1.84,6.2-4.68l0.43-1.5c0.98-3.42-1-6.99-4.43-7.97C690.23,365.04,686.66,367.02,685.68,370.44z"/>
			<linearGradient id="SVGID_31_" gradientUnits="userSpaceOnUse" x1="78.8141" y1="-157.5718" x2="929.4171" y2="400.0084">
				<stop  offset="0" style="stop-color:#A477B1"/>
				<stop  offset="0.4226" style="stop-color:#EE515A"/>
				<stop  offset="1" style="stop-color:#2B3389"/>
			</linearGradient>
			<polygon class="st42" points="704.08,271.04 734.99,279.88 727.18,248.69 			"/>
			<linearGradient id="SVGID_32_" gradientUnits="userSpaceOnUse" x1="125.7593" y1="-229.1879" x2="976.3622" y2="328.3924">
				<stop  offset="0" style="stop-color:#A477B1"/>
				<stop  offset="0.4226" style="stop-color:#EE515A"/>
				<stop  offset="1" style="stop-color:#2B3389"/>
			</linearGradient>
			<path class="st43" d="M667.64,133.73l0.73,0.35c0.9,0.44,1.86,0.64,2.8,0.64c2.4,0,4.7-1.34,5.81-3.64
				c1.55-3.21,0.21-7.06-3-8.61l-0.73-0.35c-3.2-1.55-7.06-0.21-8.61,3C663.09,128.32,664.43,132.18,667.64,133.73z"/>
			<linearGradient id="SVGID_33_" gradientUnits="userSpaceOnUse" x1="123.9207" y1="-226.3831" x2="974.5237" y2="331.1972">
				<stop  offset="0" style="stop-color:#A477B1"/>
				<stop  offset="0.4226" style="stop-color:#EE515A"/>
				<stop  offset="1" style="stop-color:#2B3389"/>
			</linearGradient>
			<path class="st44" d="M644.04,122.32l1.39,0.67c0.9,0.44,1.86,0.64,2.8,0.64c2.4,0,4.7-1.34,5.81-3.65c1.55-3.21,0.2-7.06-3-8.61
				l-1.39-0.67c-3.21-1.55-7.06-0.2-8.61,3C639.49,116.92,640.83,120.78,644.04,122.32z"/>
			<linearGradient id="SVGID_34_" gradientUnits="userSpaceOnUse" x1="120.1922" y1="-220.6952" x2="970.7952" y2="336.8851">
				<stop  offset="0" style="stop-color:#A477B1"/>
				<stop  offset="0.4226" style="stop-color:#EE515A"/>
				<stop  offset="1" style="stop-color:#2B3389"/>
			</linearGradient>
			<path class="st45" d="M603.83,88.57l-1.39-0.67c-3.21-1.55-7.06-0.2-8.61,3c-1.55,3.21-0.2,7.06,3,8.61l1.39,0.67
				c0.9,0.44,1.86,0.64,2.8,0.64c2.4,0,4.7-1.34,5.81-3.65C608.38,93.98,607.04,90.12,603.83,88.57z"/>
			<linearGradient id="SVGID_35_" gradientUnits="userSpaceOnUse" x1="122.0565" y1="-223.5392" x2="972.6594" y2="334.0411">
				<stop  offset="0" style="stop-color:#A477B1"/>
				<stop  offset="0.4226" style="stop-color:#EE515A"/>
				<stop  offset="1" style="stop-color:#2B3389"/>
			</linearGradient>
			<path class="st46" d="M620.44,110.92l1.39,0.67c0.9,0.44,1.86,0.64,2.8,0.64c2.4,0,4.7-1.34,5.81-3.65c1.55-3.21,0.2-7.06-3-8.61
				l-1.39-0.67c-3.21-1.55-7.06-0.2-8.61,3C615.89,105.52,617.23,109.37,620.44,110.92z"/>
			<linearGradient id="SVGID_36_" gradientUnits="userSpaceOnUse" x1="118.3279" y1="-217.8511" x2="968.9308" y2="339.7292">
				<stop  offset="0" style="stop-color:#A477B1"/>
				<stop  offset="0.4226" style="stop-color:#EE515A"/>
				<stop  offset="1" style="stop-color:#2B3389"/>
			</linearGradient>
			<path class="st47" d="M573.23,88.11l1.39,0.67c0.9,0.44,1.86,0.64,2.8,0.64c2.4,0,4.7-1.34,5.81-3.65c1.55-3.21,0.2-7.06-3-8.61
				l-1.39-0.67c-3.21-1.55-7.06-0.2-8.61,3C568.68,82.7,570.02,86.56,573.23,88.11z"/>
			<linearGradient id="SVGID_37_" gradientUnits="userSpaceOnUse" x1="116.7957" y1="-215.5137" x2="967.3987" y2="342.0665">
				<stop  offset="0" style="stop-color:#A477B1"/>
				<stop  offset="0.4226" style="stop-color:#EE515A"/>
				<stop  offset="1" style="stop-color:#2B3389"/>
			</linearGradient>
			<polygon class="st48" points="564.33,58.79 532.26,61.15 550.34,87.74 			"/>
		</g>
	</g>
</g>
</svg>
