<svg xmlns="http://www.w3.org/2000/svg" role="img" xmlns:xlink="http://www.w3.org/1999/xlink" viewBox="-0.34 -5.84 719.68 240.18"><defs><linearGradient id="a" x1="17.251" x2="170.781" y1="987.131" y2="819.8" gradientTransform="matrix(1 0 0 -1 0 1008.073)" gradientUnits="userSpaceOnUse"><stop offset="0" stop-color="#a677b4"/><stop offset=".363" stop-color="#f0515a"/><stop offset="1" stop-color="#2b338c"/></linearGradient><linearGradient id="b" x1="45.031" x2="369.437" y1="1091.246" y2="737.68" xlink:href="#a"/><linearGradient id="c" x1="73.96" x2="398.365" y1="1117.789" y2="764.223" xlink:href="#a"/><linearGradient id="d" x1="120.119" x2="444.524" y1="1160.141" y2="806.575" xlink:href="#a"/><linearGradient id="e" x1="176.5" x2="500.906" y1="1211.872" y2="858.307" xlink:href="#a"/><linearGradient id="f" x1="199.834" x2="524.24" y1="1233.282" y2="879.716" xlink:href="#a"/><linearGradient id="g" x1="250.204" x2="574.61" y1="1279.497" y2="925.932" xlink:href="#a"/></defs><path fill="url(#a)" fill-rule="evenodd" d="M94.815 102.599v2.086m55.066 65.575l1.815-.488.216 1.409c1.03 6.473.569 12.08-2.058 17.795 4.063.569 7.61 2.52 9.48 6.663 1.327 2.926 2.6 6.338 2.627 9.589a8.092 8.092 0 0 1-2.654 6.392 6.298 6.298 0 0 1-3.982 1.436h-21.208c-1.22 3.331-3.63 6.392-7.151 7.313a16.363 16.363 0 0 1-3.007.406 63.93 63.93 0 0 1-3.196.081c-2.735.027-5.471 0-8.207 0q-6.419-.081-12.838-.243a6.84 6.84 0 0 1-6.04-3.928 6.817 6.817 0 0 1-6.014 3.928c-4.306.108-8.586.19-12.866.243-2.735.027-5.47.054-8.207 0a63.96 63.96 0 0 1-3.196-.081 14.341 14.341 0 0 1-3.033-.406c-3.521-.921-5.905-4.009-7.151-7.313H32.192a6.298 6.298 0 0 1-3.981-1.436 8.092 8.092 0 0 1-2.655-6.392c0-3.25 1.3-6.663 2.6-9.589a10.91 10.91 0 0 1 3.142-4.063 12.798 12.798 0 0 1 6.149-2.6c-2.627-5.715-3.088-11.322-2.059-17.795l.217-1.409 2.032.542a28.742 28.742 0 0 1 .975-3.63 23.572 23.572 0 0 1 7.502-10.915 19.596 19.596 0 0 1 4.09-2.52 72.434 72.434 0 0 1 1.544-11.538 52.578 52.578 0 0 1 4.497-14.843 20.546 20.546 0 0 1-2.763-4.36 8.31 8.31 0 0 1-.298-.732 63.245 63.245 0 0 1-17.958-15.222c-2.98-3.657-7.34-9.345-7.72-14.14-.19-1.679-.243-3.358-.27-5.01a89.647 89.647 0 0 1 .65-12.054c.27-2.329.65-4.658 1.11-6.96a64.656 64.656 0 0 1-8.044-11.593 58.683 58.683 0 0 1-6.718-20.992 57.343 57.343 0 0 1 1.652-21.777 8.208 8.208 0 0 1 7.91-6.013c13.868 0 25.84 5.66 36.972 12.974a65.22 65.22 0 0 1 68.148 0c11.105-7.313 23.077-12.974 36.945-12.974a8.122 8.122 0 0 1 7.882 6.04 57.963 57.963 0 0 1 1.626 21.777 58.683 58.683 0 0 1-6.718 20.992 64.517 64.517 0 0 1-8.017 11.593c.433 2.194.785 4.387 1.083 6.636a88.504 88.504 0 0 1 .677 12.27c-.027 1.706-.08 3.412-.27 5.065-.434 4.93-4.66 10.455-7.72 14.193a63.686 63.686 0 0 1-17.958 15.222l-.325.731a37.504 37.504 0 0 1-1.923 3.549 16.767 16.767 0 0 1-2.221 2.898 42.515 42.515 0 0 1 1.517 4.036 55.319 55.319 0 0 1 2.085 8.91c.325 1.545.623 3.116.84 4.66 6.149-10.293 14.329-19.584 24.621-25.299a39.094 39.094 0 0 1 19.854-5.309c7.395.19 14.654 3.63 20.26 8.343 6.149 5.173 11.16 12.568 12 20.72a11.798 11.798 0 0 1-.271 4.01 14.902 14.902 0 0 1-8.397 9.642c-5.092 2.384-11.457 2.302-15.737-1.733-2.41-2.303-3.169-4.822-4.388-7.774a9.28 9.28 0 0 0-3.033-4.226 10.609 10.609 0 0 0-7.151-2.14c-3.657.244-6.907 2.33-9.48 4.822a49.083 49.083 0 0 0-4.063 4.496 76.474 76.474 0 0 0-6.582 9.534 61.56 61.56 0 0 0-4.009 7.882 3.527 3.527 0 0 1-.216.46 1.004 1.004 0 0 0 .054.245zm5.607-23.078a2.322 2.322 0 0 1 .975.19c1.246-1.463 2.546-2.898 3.9-4.225.433-.407.867-.813 1.273-1.165a13.11 13.11 0 0 1-4.063-4.47 14.278 14.278 0 0 1-1.76-4.929 63.257 63.257 0 0 0-7.639 7.963c-.135 1.87 1.707 4.036 2.98 5.038a6.69 6.69 0 0 0 4.334 1.598zm-1.924 3.874a11.52 11.52 0 0 1-4.875-2.275 13.25 13.25 0 0 1-3.548-4.226 87.89 87.89 0 0 0-6.5 10.862 18.604 18.604 0 0 1 1.976 1.381 20.884 20.884 0 0 1 5.418 6.5 84.486 84.486 0 0 1 7.53-12.242zm33.1-10.51a1.58 1.58 0 0 1-.163.705c4.117 4.035 3.927 8.748 6.5 11.186 4.524 4.307 14.573-.542 13.95-6.744-.569-5.39-3.684-10.753-8.018-14.979-.027-.027-.054-.054-.08-.054a3.255 3.255 0 0 0-2.303-.867c-5.472-.243-9.697 5.499-9.887 10.753zm-3.847-1.977a16.248 16.248 0 0 1 1.165-3.954 14.833 14.833 0 0 1 9.1-8.451 25.418 25.418 0 0 0-12.35-3.955 23.068 23.068 0 0 0-3.603.163c-.379.27-.731.541-.92.704a6.476 6.476 0 0 0-.624.596c-2.735 3.088-2.41 9.047-.054 12.243a2.229 2.229 0 0 1 .325.677 16.834 16.834 0 0 1 6.961 1.977zm-11.457-1.652a15.486 15.486 0 0 1-1.76-6.934 14.637 14.637 0 0 1 1.191-6.257 39.24 39.24 0 0 0-6.717 2.98c-1.273.704-2.546 1.516-3.82 2.383 0 .027-.026.027-.026.054-1.165 1.707-.055 4.74.866 6.338a8.616 8.616 0 0 0 3.657 3.576 1.474 1.474 0 0 1 .487.298 19.946 19.946 0 0 1 6.122-2.438zM88.883 25.594a1.923 1.923 0 1 1-1.923 1.923 1.896 1.896 0 0 1 1.923-1.923zm0 8.478a1.923 1.923 0 1 1-1.923 1.923 1.93 1.93 0 0 1 1.923-1.923zm11.89-8.478a1.923 1.923 0 1 1-1.922 1.923 1.93 1.93 0 0 1 1.923-1.923zm0 8.478a1.923 1.923 0 1 1-1.922 1.923 1.93 1.93 0 0 1 1.923-1.923zm-4.333-14.79V42.28c12.297.27 24.377 3.683 31.799 10.211 8.56 7.557 14.274 20.64 13.651 27.52-.541 6.175-10.4 10.346-23.537 12.513a11.949 11.949 0 0 1 1.354 3.792 17.257 17.257 0 0 1-.027 5.661 145.075 145.075 0 0 0 13.407-2.167 131.138 131.138 0 0 0 20.721-6.23 7.423 7.423 0 0 0 .46-1.896s2.845-25.894-11.836-47.102A57.633 57.633 0 0 0 96.44 19.283zM93.217 42.28V19.283a57.642 57.642 0 0 0-46.48 26.056C32.653 66.412 35.415 91.71 35.415 91.71a8.306 8.306 0 0 0 .542 1.95 132.91 132.91 0 0 0 20.613 6.176c4.008.84 8.45 1.598 13.434 2.167a17.256 17.256 0 0 1-.027-5.66 11.949 11.949 0 0 1 1.354-3.793c-13.136-2.167-22.996-6.365-23.537-12.514-.623-6.88 5.092-19.962 13.651-27.519C68.84 45.962 80.92 42.55 93.217 42.28zM71.06 105.362a145.37 145.37 0 0 1-15.141-2.384 132.894 132.894 0 0 1-17.715-5.065 45.97 45.97 0 0 0 2.899 3.955 58.164 58.164 0 0 0 26.842 18.364 84.047 84.047 0 0 0 10.482 2.817c0-.027-.027-.081-.027-.108a5.798 5.798 0 0 1-.298-2.953c.433-2.492 2.302-4.063 4.713-5.065-4.55-1.544-8.64-4.117-11.024-8.207a7.435 7.435 0 0 1-.731-1.354zm11.538 15.98c.515 1.328 2.221 2.357 4.361 3.061 2.6.298 5.228.542 7.855.704 2.654-.162 5.309-.379 7.91-.704 2.003-.65 3.629-1.57 4.252-2.79 2.708-5.254-26.22-5.119-24.378-.27zm68.826-23.402a134.797 134.797 0 0 1-17.66 5.038 146.536 146.536 0 0 1-15.141 2.384c-.217.46-.434.894-.678 1.327-2.383 4.063-6.446 6.663-10.997 8.207 2.357 1.002 4.172 2.546 4.632 4.957a5.733 5.733 0 0 1-.298 3.169 68.854 68.854 0 0 0 24.296-9.48 62.254 62.254 0 0 0 13.625-12.785c.785-.894 1.516-1.869 2.22-2.817zm-57.775 8.424c-1.219 2.14-3.738 5.336-9.046 4.253-6.528-2.113-11.214-6.501-10.05-13.516 1.057-6.339 11.593-10.293 20.234-10.212h.081c8.64-.081 19.177 3.873 20.206 10.212 1.002 6.067-2.356 10.184-7.53 12.54-7.665 2.844-10.346-.866-11.538-3.223-.57-1.137-.813-1.733-1.11-1.76h-.082c-.244.108-.542.65-1.165 1.706zm1.165-16.522c-5.228 0-11.566 1.516-12.189 4.767-1.029 5.39 6.961 7.99 12.189 7.99h.108c5.228-.027 13.137-2.627 12.108-7.99-.623-3.25-6.961-4.767-12.189-4.767zM80.243 79.278a1.95 1.95 0 1 1-3.9 0 8.738 8.738 0 0 0-2.06-5.742 6.271 6.271 0 0 0-4.685-2.248 5.88 5.88 0 0 0-3.359 1.056 7.458 7.458 0 0 0-2.546 3.06 1.933 1.933 0 1 1-3.494-1.652 11.794 11.794 0 0 1 3.873-4.631 9.77 9.77 0 0 1 5.553-1.734 9.99 9.99 0 0 1 7.584 3.576 12.773 12.773 0 0 1 3.034 8.315zm29.171 0a1.95 1.95 0 0 0 3.9 0 8.739 8.739 0 0 1 2.06-5.742 6.227 6.227 0 0 1 4.685-2.248 5.881 5.881 0 0 1 3.359 1.056 7.458 7.458 0 0 1 2.546 3.06 1.945 1.945 0 0 0 3.521-1.652 11.794 11.794 0 0 0-3.873-4.631 9.77 9.77 0 0 0-5.553-1.734 9.99 9.99 0 0 0-7.584 3.576 12.651 12.651 0 0 0-3.06 8.315zm1.571 51.843a53.018 53.018 0 0 1-12.784 2.41 53.939 53.939 0 0 1-28.793-6.365c-1.706-.488-3.358-1.056-5.01-1.652a33.206 33.206 0 0 0 16.17 11.7c-6.582-1.11-13.245-3.141-18.392-6.716-3.331 7.204-5.363 17.226-3.737 30.905q.568 4.672 1.462 8.857c8.668-3.928 14.735-2.357 22.265 2.654a107.095 107.095 0 0 1 4.55-24.486c.515-1.543 1.192-2.302 2.113-2.383.975-.081 2.627-.027 2.573 2.844-.298 1.165-.542 2.546-.731 3.548-.515 2.655-.921 5.363-1.327 8.045-.38 2.654-.759 5.309-1.084 7.99-.217 1.706-.433 3.467-.569 5.2-.054.976-.108 1.95-.135 2.926a48.962 48.962 0 0 0 12.27-.081 98.53 98.53 0 0 0-.136-2.872c-.298-4.28-.948-8.775-1.57-13.028-.38-2.546-.786-5.12-1.274-7.638a33.989 33.989 0 0 0-1.137-4.632c.081-2.844 3.792-3.467 4.821-.325a105.3 105.3 0 0 1 4.713 25.19c6.799-3.9 15.791-6.798 22.292-3.169.569-2.736 1.03-5.607 1.408-8.64 1.517-12.65-.108-22.184-3.006-29.226-5.2 3.06-11.81 4.686-18.175 5.498a33.188 33.188 0 0 0 17.579-12.161 83.331 83.331 0 0 1-5.011 1.652 51.02 51.02 0 0 1-9.345 3.955zM35.361 17.766a71.554 71.554 0 0 1 19.42 9.046 63.688 63.688 0 0 0-7.014 6.555c-1.165-1.923-2.438-3.792-3.765-5.634a66.474 66.474 0 0 0-8.64-9.967zm-11.403-1.598h.65c7.693 4.225 14.572 12.811 19.637 21.343a94.484 94.484 0 0 0-3.006 4.117 71.128 71.128 0 0 0-8.64 18.148c-6.203-8.342-14.085-23.673-8.858-43.446.082-.027.136-.108.217-.162zm141.74 0h-.65c-7.692 4.225-14.571 12.811-19.636 21.343a49.15 49.15 0 0 1 2.41 3.305 70.819 70.819 0 0 1 9.21 18.987c6.202-8.342 14.084-23.673 8.857-43.446l-.19-.19zm-11.402 1.598a71.181 71.181 0 0 0-19.42 9.046 63.968 63.968 0 0 1 7.014 6.582 97.701 97.701 0 0 1 3.765-5.66 66.473 66.473 0 0 1 8.64-9.968zm-93.04 158.398a96.06 96.06 0 0 0 7.827 20.26 3.44 3.44 0 0 0 1.653 1.626c2.681 1.625 6.446 3.386 7.096 10.076-3.06-3.9-5.986-6.69-10.482-7.665a8.568 8.568 0 0 0-6.42 2.194c-3.71 3.846-1.029 10.482 1.22 11.078s25.325 0 25.325 0 .948-4.307-.84-6.69c-1.76-2.411-4.496-14.681-4.686-27.736-5.417-4.74-13.787-7.937-20.694-3.142zm64.816 0a97.823 97.823 0 0 1-7.8 20.26 3.689 3.689 0 0 1-1.653 1.626c-2.681 1.625-6.446 3.386-7.096 10.076 3.06-3.9 5.986-6.69 10.482-7.665 2.194-.027 4.713.406 6.42 2.194 3.71 3.846 1.029 10.482-1.22 11.078s-25.325 0-25.325 0-.948-4.307.84-6.69c1.76-2.411 4.523-14.681 4.713-27.736 5.363-4.74 13.732-7.937 20.64-3.142zm-30.309 29.01c-.677 0-1.381.027-2.086.027h-1.652a14.85 14.85 0 0 0-.84-1.409 16.35 16.35 0 0 1-.866-2.438 64.262 64.262 0 0 1-1.571-7.042 90.6 90.6 0 0 1-1.246-13.3 43.411 43.411 0 0 0 12.703-.107 86.485 86.485 0 0 1-1.598 15.411c-.352 1.788-1.246 6.122-2.167 7.72a12.554 12.554 0 0 0-.677 1.138zm50.434-27.926c.19 12.487-7.692 17.416-12.297 21.1 20.965-9.534 23.375 6.69 21.208 8.478h-21.696a11.736 11.736 0 0 0-9.02-11.051 83.095 83.095 0 0 0 4.226-10.78c6.122-3.278 13.327-6.637 17.579-7.747zM134.74 158.91c5.254 2.437 8.559 7.99 9.29 14.22a83.64 83.64 0 0 0-12.839 5.417 118.312 118.312 0 0 0 3.224-16.495c.135-1.003.243-2.059.325-3.142zm-82.152.108c-5.174 2.492-8.397 8.017-9.101 14.193a86.562 86.562 0 0 1 12.622 5.363 118.312 118.312 0 0 1-3.223-16.495 106.76 106.76 0 0 1-.298-3.061zm-11.485 18.229c-.19 12.487 7.693 17.416 12.325 21.1-20.992-9.534-23.376 6.69-21.236 8.478H53.51a12.284 12.284 0 0 1 3.359-8.045 12.506 12.506 0 0 1 5.498-3.277 82.55 82.55 0 0 1-1.246-2.709q-1.747-4.022-3.17-8.207c-5.93-3.115-12.73-6.257-16.847-7.34z"/><path fill="url(#b)" d="M278.648 128.76l-27.528 80.525h-30.848l27.585-80.525h-21.976l8.699-25.411h74.687l-8.699 25.411h-21.92z"/><path fill="url(#c)" d="M353.507 184.046l-8.642 25.239h-79.781l36.228-105.936h69.708l-8.413 24.438h-37.716l-5.265 15.453H358.2l-8.012 23.522h-38.574l-5.952 17.284h47.845z"/><path fill="url(#d)" d="M435.978 209.285H400.38l-4.636-39.833-16.254 15.395-8.355 24.438h-30.677l36.228-105.936h30.676l-14.937 43.725 44.068-43.725h29.188l-39.947 38.689 10.244 67.247z"/><path fill="url(#e)" fill-rule="evenodd" d="M500.135 128.76l-27.529 80.525h-28.501l-.687-4.75 25.926-75.775h-21.691l26.213-25.411h95.863l-47.674 25.411h-21.92z"/><path fill="url(#f)" d="M531.841 210.888q-22.32 0-31.363-14.594-9.014-14.595-.572-39.09a84.677 84.677 0 0 1 26.899-38.631 65.93 65.93 0 0 1 42.695-15.224c14.708 0 25.124 4.808 31.134 14.365 5.952 9.558 6.124 22.378.63 38.346-5.724 16.54-15.053 29.875-27.873 39.833-12.934 10.015-26.727 14.995-41.55 14.995zm8.07-23.637c5.551 0 10.302-2.347 14.365-7.097s8.299-13.392 12.648-25.926c6.296-18.2 4.464-27.242-5.437-27.242-10.76 0-19.687 10.359-26.899 31.077q-10.13 29.188 5.323 29.188z"/><path fill="url(#g)" d="M669.77 209.285h-26.5l-13.163-46.701a114.391 114.391 0 0 1-3.548-22.034 77.476 77.476 0 0 1-3.377 17.398l-17.57 51.337h-26.384l36.228-105.993h30.676l11.446 38.803a105.714 105.714 0 0 1 4.178 20.375 162.503 162.503 0 0 1 7.04-27.815l10.702-31.363h26.556z"/></svg>